<svg width="370" height="398" viewBox="0 0 370 398" fill="none" xmlns="http://www.w3.org/2000/svg">
<path d="M132.832 183.453V375.666C132.832 387.856 132.832 397.75 154.915 397.75H199.082C221.165 397.75 221.165 387.856 221.165 375.666V226.339C187.23 224.204 155.499 208.798 132.832 183.453Z" fill="#4C839E"/>
<path fill-rule="evenodd" clip-rule="evenodd" d="M141.621 137.188C147.346 149.635 155.65 160.723 165.984 169.717C176.318 178.711 188.446 185.406 201.563 189.359C214.68 193.312 228.487 194.432 242.07 192.644C255.653 190.857 268.701 186.204 280.349 178.992L338.053 236.696L369.279 205.47L311.575 147.766C320.369 133.566 325.331 117.328 325.977 100.637C326.623 83.9463 322.931 67.3732 315.261 52.5352C307.591 37.6971 296.206 25.101 282.215 15.9761C268.225 6.85127 252.108 1.50937 235.437 0.471772C218.766 -0.565827 202.111 2.73632 187.097 10.056C172.083 17.3756 159.223 28.4627 149.772 42.2351C140.322 56.0076 134.603 71.9949 133.174 88.6369C131.746 105.279 134.656 122.007 141.621 137.188ZM229.447 149.312C226.311 149.312 223.242 149.047 220.238 148.517C209.11 146.535 198.922 141.004 191.199 132.75C182.945 123.953 177.977 112.58 177.13 100.547C176.283 88.5146 179.609 76.5578 186.548 66.6914C193.488 56.825 203.616 49.6521 215.227 46.3813C226.837 43.1105 239.22 43.9418 250.289 48.735C261.358 53.5282 270.437 61.9905 275.996 72.6958C281.554 83.4012 283.252 95.6954 280.805 107.507C278.357 119.318 271.913 129.925 262.558 137.54C253.203 145.155 241.509 149.312 229.447 149.312Z" fill="#4C839E"/>
<path d="M0.332031 22.3333C0.332031 10.1433 0.332031 0.25 22.4154 0.25H66.582C88.6654 0.25 88.6654 10.1433 88.6654 22.3333V375.667C88.6654 387.857 88.6654 397.75 66.582 397.75H22.4154C0.332031 397.75 0.332031 387.857 0.332031 375.667V22.3333ZM287.415 265.25C265.332 265.25 265.332 275.143 265.332 287.333V375.667C265.332 387.857 265.332 397.75 287.415 397.75H331.582C343.772 397.75 353.665 397.75 353.665 375.667V287.333C353.665 275.143 353.665 265.25 331.582 265.25H287.415Z" fill="#4C839E"/>
</svg>
