<svg width="189" height="189" viewBox="0 0 189 189" fill="none" xmlns="http://www.w3.org/2000/svg">
<circle cx="94.3754" cy="94.3754" r="91.4937" stroke="white" stroke-width="5.76338"/>
<path d="M151.833 88.4153V94.207C151.774 105.896 148.18 117.295 141.522 126.903C134.864 136.511 125.455 143.88 114.531 148.041C103.607 152.201 91.6791 152.959 80.3164 150.214C68.9537 147.469 58.6875 141.35 50.8676 132.661C43.0477 123.972 38.04 113.12 36.5029 101.532C34.9658 89.9442 36.9713 78.1622 42.2556 67.7352C47.54 57.3082 55.8558 48.7243 66.11 43.1119C76.3642 37.4996 88.0766 35.1215 99.7077 36.2903" stroke="white" stroke-width="9.58" stroke-linecap="round" stroke-linejoin="round"/>
<path d="M70.75 105.795C70.75 105.795 79.4375 117.378 93.9167 117.378C108.396 117.378 117.083 105.795 117.083 105.795M76.5417 76.8366H76.5996M111.292 76.8366H111.35M117.083 53.6699H151.833M134.458 36.2949V71.0449" stroke="white" stroke-width="9.58" stroke-linecap="round" stroke-linejoin="round"/>
</svg>
