<svg width="323" height="291" viewBox="0 0 323 291" fill="none" xmlns="http://www.w3.org/2000/svg">
<path d="M161.5 24.5625C154.016 24.5625 146.838 27.5355 141.546 32.8276C136.254 38.1196 133.281 45.2972 133.281 52.7812C133.281 60.2653 136.254 67.4429 141.546 72.7349C146.838 78.027 154.016 81 161.5 81C168.984 81 176.162 78.027 181.454 72.7349C186.746 67.4429 189.719 60.2653 189.719 52.7812C189.719 45.2972 186.746 38.1196 181.454 32.8276C176.162 27.5355 168.984 24.5625 161.5 24.5625ZM109.094 52.7812C109.094 38.8822 114.615 25.5525 124.443 15.7244C134.271 5.89636 147.601 0.375 161.5 0.375C175.399 0.375 188.729 5.89636 198.557 15.7244C208.385 25.5525 213.906 38.8822 213.906 52.7812C213.906 66.6802 208.385 80.01 198.557 89.8381C188.729 99.6661 175.399 105.187 161.5 105.187C147.601 105.187 134.271 99.6661 124.443 89.8381C114.615 80.01 109.094 66.6802 109.094 52.7812ZM48.625 56.8125C42.2101 56.8125 36.0579 59.3608 31.5219 63.8968C26.9858 68.4329 24.4375 74.5851 24.4375 81C24.4375 87.4149 26.9858 93.5671 31.5219 98.1031C36.0579 102.639 42.2101 105.187 48.625 105.187C55.0399 105.187 61.1921 102.639 65.7281 98.1031C70.2642 93.5671 72.8125 87.4149 72.8125 81C72.8125 74.5851 70.2642 68.4329 65.7281 63.8968C61.1921 59.3608 55.0399 56.8125 48.625 56.8125ZM0.25 81C0.25 68.1701 5.34664 55.8658 14.4187 46.7937C23.4908 37.7216 35.7951 32.625 48.625 32.625C61.4548 32.625 73.7592 37.7216 82.8313 46.7937C91.9034 55.8658 97 68.1701 97 81C97 93.8298 91.9034 106.134 82.8313 115.206C73.7592 124.278 61.4548 129.375 48.625 129.375C35.7951 129.375 23.4908 124.278 14.4187 115.206C5.34664 106.134 0.25 93.8298 0.25 81ZM250.187 81C250.187 74.5851 252.736 68.4329 257.272 63.8968C261.808 59.3608 267.96 56.8125 274.375 56.8125C280.79 56.8125 286.942 59.3608 291.478 63.8968C296.014 68.4329 298.562 74.5851 298.562 81C298.562 87.4149 296.014 93.5671 291.478 98.1031C286.942 102.639 280.79 105.187 274.375 105.187C267.96 105.187 261.808 102.639 257.272 98.1031C252.736 93.5671 250.187 87.4149 250.187 81ZM274.375 32.625C261.545 32.625 249.241 37.7216 240.169 46.7937C231.097 55.8658 226 68.1701 226 81C226 93.8298 231.097 106.134 240.169 115.206C249.241 124.278 261.545 129.375 274.375 129.375C287.205 129.375 299.509 124.278 308.581 115.206C317.653 106.134 322.75 93.8298 322.75 81C322.75 68.1701 317.653 55.8658 308.581 46.7937C299.509 37.7216 287.205 32.625 274.375 32.625ZM88.9375 157.594C88.9375 142.017 101.579 129.375 117.156 129.375H205.844C221.42 129.375 234.062 142.017 234.062 157.594V218.062C234.062 237.307 226.418 255.764 212.809 269.372C199.201 282.98 180.745 290.625 161.5 290.625C142.255 290.625 123.799 282.98 110.191 269.372C96.5825 255.764 88.9375 237.307 88.9375 218.062V157.594ZM117.156 153.562C116.087 153.562 115.062 153.987 114.306 154.743C113.55 155.499 113.125 156.525 113.125 157.594V218.062C113.125 230.892 118.222 243.197 127.294 252.269C136.366 261.341 148.67 266.437 161.5 266.437C174.33 266.437 186.634 261.341 195.706 252.269C204.778 243.197 209.875 230.892 209.875 218.062V157.594C209.875 156.525 209.45 155.499 208.694 154.743C207.938 153.987 206.913 153.562 205.844 153.562H117.156ZM74.5862 145.145C73.4145 149.112 72.8232 153.261 72.8125 157.594V170.655L27.4368 182.813C26.404 183.089 25.5232 183.764 24.988 184.689C24.4527 185.615 24.3069 186.715 24.5826 187.747L36.0636 230.592C39.0084 241.582 45.7328 251.183 55.055 257.706C64.3773 264.23 75.7006 267.258 87.0347 266.26C92.1141 274.097 98.4029 281.079 105.627 286.932C96.2432 290.044 86.3228 291.205 76.4743 290.344C66.6258 289.484 57.057 286.62 48.3551 281.929C39.6532 277.237 32.0017 270.817 25.8702 263.062C19.7387 255.307 15.2564 246.381 12.6985 236.832L1.2175 194.004C-0.718287 186.777 0.29553 179.076 4.03602 172.596C7.77652 166.116 13.9374 161.387 21.1641 159.448L74.5862 145.145ZM217.373 286.932C218.717 287.384 220.077 287.792 221.453 288.158C240.041 293.137 259.846 290.529 276.511 280.906C293.176 271.284 305.337 255.436 310.318 236.848L321.799 194.02C322.76 190.44 323.006 186.706 322.523 183.031C322.041 179.356 320.839 175.813 318.987 172.602C317.135 169.392 314.668 166.578 311.728 164.321C308.788 162.064 305.432 160.408 301.852 159.448L248.414 145.129C249.585 149.107 250.177 153.261 250.187 157.594V170.655L295.595 182.813C296.625 183.093 297.502 183.769 298.034 184.694C298.566 185.619 298.71 186.717 298.433 187.747L286.952 230.592C284.007 241.585 277.28 251.188 267.955 257.712C258.629 264.235 247.302 267.262 235.965 266.26C230.893 274.085 224.619 281.062 217.373 286.932Z" fill="white"/>
</svg>
