<svg width="189" height="189" viewBox="0 0 189 189" fill="none" xmlns="http://www.w3.org/2000/svg">
<path d="M105 50C105 52.9174 103.841 55.7153 101.778 57.7782C99.7153 59.8411 96.9174 61 94 61C91.0826 61 88.2847 59.8411 86.2218 57.7782C84.1589 55.7153 83 52.9174 83 50C83 47.0826 84.1589 44.2847 86.2218 42.2218C88.2847 40.1589 91.0826 39 94 39C96.9174 39 99.7153 40.1589 101.778 42.2218C103.841 44.2847 105 47.0826 105 50Z" stroke="white" stroke-width="8.25"/>
<mask id="path-2-inside-1_824_152" fill="white">
<path d="M94 110.503L97.5805 108.457C97.2196 107.826 96.6983 107.301 96.0696 106.937C95.4408 106.572 94.7269 106.38 94 106.38C93.2731 106.38 92.5592 106.572 91.9304 106.937C91.3017 107.301 90.7804 107.826 90.4195 108.457L94 110.503ZM59.955 91.5826L71.923 95.5756L74.5245 87.7491L62.5675 83.7561L59.955 91.5826ZM73.738 99.4311L66.885 117.257L74.585 120.221L81.4435 102.39L73.738 99.4311ZM125.433 83.7561L113.464 87.7491L116.077 95.5756L128.034 91.5826L125.433 83.7561ZM106.551 102.39L113.415 120.221L121.11 117.257L114.251 99.4311L106.551 102.39ZM88.9125 127.718L97.575 112.549L90.414 108.457L81.746 123.62L88.9125 127.718ZM121.44 67.4046L111.012 69.6376L112.733 77.7061L123.178 75.4676L121.44 67.4046ZM77.005 69.6376L66.555 67.4046L64.828 75.4676L75.267 77.7061L77.005 69.6376ZM90.425 112.549L99.093 127.718L106.254 123.62L97.586 108.457L90.425 112.549ZM111.012 69.6376L109.879 69.8796L111.55 77.9591L112.733 77.7061L111.012 69.6376ZM75.267 77.7061L76.455 77.9591L78.127 69.8741L76.994 69.6376L75.267 77.7061ZM109.879 69.8796C99.4055 72.0459 88.6 72.0404 78.127 69.8741L76.455 77.9591C88.0292 80.353 99.9708 80.353 111.545 77.9591L109.879 69.8796ZM78.2975 133.878C82.6865 133.878 86.74 131.524 88.9125 127.718L81.746 123.62C81.3999 124.231 80.9031 124.739 80.2962 125.091C79.6893 125.444 78.9995 125.629 78.2975 125.628V133.878ZM113.415 120.221C113.647 120.824 113.729 121.474 113.654 122.115C113.579 122.756 113.348 123.37 112.983 123.902C112.617 124.434 112.127 124.87 111.556 125.17C110.984 125.471 110.348 125.628 109.702 125.628V133.878C111.688 133.878 113.643 133.395 115.399 132.471C117.156 131.546 118.661 130.208 119.785 128.572C120.908 126.935 121.617 125.05 121.848 123.079C122.08 121.107 121.823 119.109 121.11 117.257L113.415 120.221ZM113.47 87.7491C112.249 88.1561 110.951 88.5576 109.895 89.2066L114.229 96.2301C114.174 96.2576 114.218 96.2246 114.537 96.1036C114.873 95.9771 115.323 95.8286 116.077 95.5756L113.47 87.7491ZM114.251 99.4311C114.051 98.9268 113.866 98.4189 113.685 97.9076C113.575 97.5831 113.574 97.5281 113.585 97.5831L105.412 98.7051C105.577 99.9316 106.094 101.191 106.556 102.39L114.251 99.4311ZM109.895 89.2066C108.308 90.1855 107.04 91.6043 106.244 93.2905C105.448 94.9768 105.159 96.8578 105.412 98.7051L113.585 97.5831C113.55 97.3195 113.593 97.0514 113.707 96.8113C113.821 96.5711 114.002 96.3693 114.229 96.2301L109.895 89.2066ZM128.375 79.6751C128.377 80.5785 128.093 81.4594 127.565 82.1922C127.036 82.925 126.29 83.4723 125.433 83.7561L128.034 91.5826C130.535 90.7516 132.716 89.1539 134.257 87.0164C135.798 84.879 136.627 82.3103 136.625 79.6751H128.375ZM66.885 117.257C66.1715 119.109 65.9198 121.107 66.1516 123.079C66.3833 125.05 67.0916 126.935 68.2152 128.572C69.3388 130.208 70.844 131.546 72.6006 132.471C74.3572 133.395 76.3125 133.878 78.2975 133.878V125.628C77.6517 125.628 77.0156 125.471 76.4441 125.17C75.8726 124.87 75.383 124.434 75.0174 123.902C74.6519 123.37 74.4215 122.756 74.3461 122.115C74.2708 121.474 74.3528 120.824 74.585 120.221L66.885 117.257ZM71.923 95.5756C72.6765 95.8231 73.1275 95.9771 73.463 96.1036C73.782 96.2246 73.8205 96.2576 73.771 96.2301L78.105 89.2066C77.049 88.5576 75.751 88.1561 74.53 87.7491L71.923 95.5756ZM81.438 102.396C81.9055 101.186 82.417 99.9316 82.5875 98.7051L74.4145 97.5831C74.42 97.5281 74.42 97.5831 74.3155 97.9076C74.1342 98.4189 73.9435 98.9268 73.7435 99.4311L81.438 102.396ZM73.771 96.2301C73.9976 96.3693 74.179 96.5711 74.2932 96.8113C74.4074 97.0514 74.4496 97.3195 74.4145 97.5831L82.5875 98.7051C82.8407 96.8578 82.5518 94.9768 81.756 93.2905C80.9603 91.6043 79.6919 90.1855 78.105 89.2066L73.771 96.2301ZM51.375 79.6751C51.375 85.0816 54.8345 89.8776 59.955 91.5826L62.5675 83.7561C61.7098 83.4723 60.9636 82.925 60.4352 82.1922C59.9068 81.4594 59.6233 80.5785 59.625 79.6751H51.375ZM59.625 79.6751C59.625 76.9361 62.155 74.8901 64.828 75.4676L66.555 67.4046C64.7249 67.0117 62.8356 67.0331 61.0149 67.4673C59.1942 67.9014 57.4936 68.7373 56.0377 69.9137C54.5818 71.0901 53.4075 72.5773 52.6007 74.2663C51.7939 75.9553 51.3751 77.8033 51.375 79.6751H59.625ZM99.093 127.718C100.161 129.59 101.7 131.146 103.565 132.228C105.429 133.31 107.547 133.879 109.702 133.878V125.628C108.272 125.628 106.958 124.858 106.254 123.62L99.093 127.718ZM136.625 79.6751C136.625 77.8039 136.206 75.9564 135.4 74.2679C134.593 72.5794 133.419 71.0926 131.964 69.9163C130.509 68.74 128.809 67.9039 126.989 67.4694C125.169 67.0348 123.269 67.0127 121.44 67.4046L123.178 75.4676C123.805 75.3331 124.449 75.3406 125.073 75.4895C125.697 75.6385 126.28 75.9252 126.778 76.3286C127.277 76.732 127.68 77.242 127.956 77.821C128.232 78.4 128.375 79.0335 128.375 79.6751H136.625Z"/>
</mask>
<path d="M94 110.503L97.5805 108.457C97.2196 107.826 96.6983 107.301 96.0696 106.937C95.4408 106.572 94.7269 106.38 94 106.38C93.2731 106.38 92.5592 106.572 91.9304 106.937C91.3017 107.301 90.7804 107.826 90.4195 108.457L94 110.503ZM59.955 91.5826L71.923 95.5756L74.5245 87.7491L62.5675 83.7561L59.955 91.5826ZM73.738 99.4311L66.885 117.257L74.585 120.221L81.4435 102.39L73.738 99.4311ZM125.433 83.7561L113.464 87.7491L116.077 95.5756L128.034 91.5826L125.433 83.7561ZM106.551 102.39L113.415 120.221L121.11 117.257L114.251 99.4311L106.551 102.39ZM88.9125 127.718L97.575 112.549L90.414 108.457L81.746 123.62L88.9125 127.718ZM121.44 67.4046L111.012 69.6376L112.733 77.7061L123.178 75.4676L121.44 67.4046ZM77.005 69.6376L66.555 67.4046L64.828 75.4676L75.267 77.7061L77.005 69.6376ZM90.425 112.549L99.093 127.718L106.254 123.62L97.586 108.457L90.425 112.549ZM111.012 69.6376L109.879 69.8796L111.55 77.9591L112.733 77.7061L111.012 69.6376ZM75.267 77.7061L76.455 77.9591L78.127 69.8741L76.994 69.6376L75.267 77.7061ZM109.879 69.8796C99.4055 72.0459 88.6 72.0404 78.127 69.8741L76.455 77.9591C88.0292 80.353 99.9708 80.353 111.545 77.9591L109.879 69.8796ZM78.2975 133.878C82.6865 133.878 86.74 131.524 88.9125 127.718L81.746 123.62C81.3999 124.231 80.9031 124.739 80.2962 125.091C79.6893 125.444 78.9995 125.629 78.2975 125.628V133.878ZM113.415 120.221C113.647 120.824 113.729 121.474 113.654 122.115C113.579 122.756 113.348 123.37 112.983 123.902C112.617 124.434 112.127 124.87 111.556 125.17C110.984 125.471 110.348 125.628 109.702 125.628V133.878C111.688 133.878 113.643 133.395 115.399 132.471C117.156 131.546 118.661 130.208 119.785 128.572C120.908 126.935 121.617 125.05 121.848 123.079C122.08 121.107 121.823 119.109 121.11 117.257L113.415 120.221ZM113.47 87.7491C112.249 88.1561 110.951 88.5576 109.895 89.2066L114.229 96.2301C114.174 96.2576 114.218 96.2246 114.537 96.1036C114.873 95.9771 115.323 95.8286 116.077 95.5756L113.47 87.7491ZM114.251 99.4311C114.051 98.9268 113.866 98.4189 113.685 97.9076C113.575 97.5831 113.574 97.5281 113.585 97.5831L105.412 98.7051C105.577 99.9316 106.094 101.191 106.556 102.39L114.251 99.4311ZM109.895 89.2066C108.308 90.1855 107.04 91.6043 106.244 93.2905C105.448 94.9768 105.159 96.8578 105.412 98.7051L113.585 97.5831C113.55 97.3195 113.593 97.0514 113.707 96.8113C113.821 96.5711 114.002 96.3693 114.229 96.2301L109.895 89.2066ZM128.375 79.6751C128.377 80.5785 128.093 81.4594 127.565 82.1922C127.036 82.925 126.29 83.4723 125.433 83.7561L128.034 91.5826C130.535 90.7516 132.716 89.1539 134.257 87.0164C135.798 84.879 136.627 82.3103 136.625 79.6751H128.375ZM66.885 117.257C66.1715 119.109 65.9198 121.107 66.1516 123.079C66.3833 125.05 67.0916 126.935 68.2152 128.572C69.3388 130.208 70.844 131.546 72.6006 132.471C74.3572 133.395 76.3125 133.878 78.2975 133.878V125.628C77.6517 125.628 77.0156 125.471 76.4441 125.17C75.8726 124.87 75.383 124.434 75.0174 123.902C74.6519 123.37 74.4215 122.756 74.3461 122.115C74.2708 121.474 74.3528 120.824 74.585 120.221L66.885 117.257ZM71.923 95.5756C72.6765 95.8231 73.1275 95.9771 73.463 96.1036C73.782 96.2246 73.8205 96.2576 73.771 96.2301L78.105 89.2066C77.049 88.5576 75.751 88.1561 74.53 87.7491L71.923 95.5756ZM81.438 102.396C81.9055 101.186 82.417 99.9316 82.5875 98.7051L74.4145 97.5831C74.42 97.5281 74.42 97.5831 74.3155 97.9076C74.1342 98.4189 73.9435 98.9268 73.7435 99.4311L81.438 102.396ZM73.771 96.2301C73.9976 96.3693 74.179 96.5711 74.2932 96.8113C74.4074 97.0514 74.4496 97.3195 74.4145 97.5831L82.5875 98.7051C82.8407 96.8578 82.5518 94.9768 81.756 93.2905C80.9603 91.6043 79.6919 90.1855 78.105 89.2066L73.771 96.2301ZM51.375 79.6751C51.375 85.0816 54.8345 89.8776 59.955 91.5826L62.5675 83.7561C61.7098 83.4723 60.9636 82.925 60.4352 82.1922C59.9068 81.4594 59.6233 80.5785 59.625 79.6751H51.375ZM59.625 79.6751C59.625 76.9361 62.155 74.8901 64.828 75.4676L66.555 67.4046C64.7249 67.0117 62.8356 67.0331 61.0149 67.4673C59.1942 67.9014 57.4936 68.7373 56.0377 69.9137C54.5818 71.0901 53.4075 72.5773 52.6007 74.2663C51.7939 75.9553 51.3751 77.8033 51.375 79.6751H59.625ZM99.093 127.718C100.161 129.59 101.7 131.146 103.565 132.228C105.429 133.31 107.547 133.879 109.702 133.878V125.628C108.272 125.628 106.958 124.858 106.254 123.62L99.093 127.718ZM136.625 79.6751C136.625 77.8039 136.206 75.9564 135.4 74.2679C134.593 72.5794 133.419 71.0926 131.964 69.9163C130.509 68.74 128.809 67.9039 126.989 67.4694C125.169 67.0348 123.269 67.0127 121.44 67.4046L123.178 75.4676C123.805 75.3331 124.449 75.3406 125.073 75.4895C125.697 75.6385 126.28 75.9252 126.778 76.3286C127.277 76.732 127.68 77.242 127.956 77.821C128.232 78.4 128.375 79.0335 128.375 79.6751H136.625Z" fill="black"/>
<path d="M62.5675 83.7561L65.1767 84.6246L59.959 82.8854L62.5675 83.7561ZM74.585 120.221L73.5985 122.788L75.5731 117.655L74.585 120.221ZM125.433 83.7561L128.042 82.8876L122.823 84.6235L125.433 83.7561ZM113.415 120.221L112.426 117.655L114.401 122.788L113.415 120.221ZM88.9125 127.718L87.5481 130.105L90.2775 125.33L88.9125 127.718ZM112.733 77.7061L110.044 78.2821L115.422 77.1323L112.733 77.7061ZM114.229 96.2301L111.889 97.6751L116.569 94.786L114.229 96.2301ZM73.771 96.2301L71.4307 94.786L76.1108 97.6751L73.771 96.2301ZM61.264 87.6721L63.8732 88.5406L65.1767 84.6246L62.5675 83.7561L59.9583 82.8876L58.6548 86.8036L61.264 87.6721ZM73.2265 91.6596L70.6173 90.7911L69.3138 94.7071L71.923 95.5756L74.5322 96.4441L75.8357 92.5281L73.2265 91.6596ZM77.5935 100.911L78.5831 98.3448L74.7331 96.8599L73.7435 99.4256L72.7539 101.991L76.6039 103.476L77.5935 100.911ZM70.735 118.742L69.7485 121.309L73.5985 122.788L74.585 120.221L75.5715 117.654L71.7215 116.175L70.735 118.742ZM126.736 87.6721L129.345 86.8036L128.042 82.8876L125.433 83.7561L122.823 84.6246L124.127 88.5406L126.736 87.6721ZM114.774 91.6596L112.164 92.5281L113.468 96.4441L116.077 95.5756L118.686 94.7071L117.383 90.7911L114.774 91.6596ZM110.406 100.911L111.396 103.476L115.246 101.991L114.256 99.4256L113.267 96.8599L109.417 98.3448L110.406 100.911ZM117.265 118.742L116.279 116.175L112.429 117.654L113.415 120.221L114.401 122.788L118.251 121.309L117.265 118.742ZM85.332 125.672L83.9676 128.059L87.5481 130.105L88.9125 127.718L90.2769 125.33L86.6964 123.284L85.332 125.672ZM122.308 71.4361L124.997 70.8567L124.128 66.8252L121.44 67.4046L118.751 67.9841L119.62 72.0156L122.308 71.4361ZM111.869 73.6746L109.18 74.2506L110.044 78.2821L112.733 77.7061L115.422 77.1302L114.559 73.0987L111.869 73.6746ZM76.1305 73.6746L78.8197 74.2498L79.6832 70.2128L76.994 69.6376L74.3048 69.0624L73.4413 73.0994L76.1305 73.6746ZM65.6915 71.4361L63.0025 70.8602L62.139 74.8917L64.828 75.4676L67.517 76.0436L68.3805 72.0121L65.6915 71.4361ZM102.668 125.666L101.304 123.278L97.7231 125.324L99.0875 127.712L100.452 130.1L104.032 128.054L102.668 125.666ZM110.709 73.9166L113.402 73.359L112.566 69.322L109.873 69.8796L107.18 70.4373L108.016 74.4743L110.709 73.9166ZM77.291 73.9166L74.598 73.3597L73.762 77.4022L76.455 77.9591L79.148 78.516L79.984 74.4735L77.291 73.9166ZM112.062 92.7211L109.722 94.1661L111.889 97.6751L114.229 96.2301L116.569 94.7852L114.402 91.2762L112.062 92.7211ZM109.499 98.1441L109.873 100.869L113.96 100.308L113.585 97.5831L113.211 94.8587L109.125 95.4197L109.499 98.1441ZM75.938 92.7211L73.5982 91.2762L71.4312 94.7852L73.771 96.2301L76.1108 97.6751L78.2778 94.1661L75.938 92.7211ZM78.501 98.1441L78.127 100.869L82.2135 101.43L82.5875 98.7051L82.9615 95.9807L78.875 95.4197L78.501 98.1441ZM62.5675 83.7561L59.959 82.8854L57.3465 90.7119L59.955 91.5826L62.5635 92.4533L65.176 84.6268L62.5675 83.7561ZM66.885 117.257L65.8969 119.823L73.5969 122.787L74.585 120.221L75.5731 117.655L67.8731 114.69L66.885 117.257ZM128.034 91.5826L130.644 90.7152L128.042 82.8887L125.433 83.7561L122.823 84.6235L125.424 92.45L128.034 91.5826ZM113.415 120.221L114.404 122.787L122.098 119.823L121.11 117.257L120.121 114.69L112.426 117.655L113.415 120.221ZM81.746 123.62L80.381 126.007L87.5475 130.105L88.9125 127.718L90.2775 125.33L83.111 121.233L81.746 123.62ZM111.012 69.6376L108.322 70.2114L110.044 78.2799L112.733 77.7061L115.422 77.1323L113.701 69.0638L111.012 69.6376ZM123.178 75.4676L125.866 74.8881L124.128 66.8251L121.44 67.4046L118.751 67.9841L120.489 76.0471L123.178 75.4676ZM66.555 67.4046L63.866 66.8287L62.139 74.8917L64.828 75.4676L67.517 76.0436L69.244 67.9806L66.555 67.4046ZM99.093 127.718L100.459 130.104L107.62 126.007L106.254 123.62L104.888 121.233L97.7272 125.331L99.093 127.718ZM76.455 77.9591L79.148 78.516L80.82 70.431L78.127 69.8741L75.434 69.3172L73.762 77.4022L76.455 77.9591ZM78.2975 125.628H75.5475V133.878H78.2975H81.0475V125.628H78.2975ZM109.702 125.628H106.952V133.878H109.702H112.452V125.628H109.702ZM109.895 89.2066L107.555 90.6507L111.889 97.6742L114.229 96.2301L116.569 94.786L112.235 87.7625L109.895 89.2066ZM113.585 97.5831L113.211 94.8587L105.038 95.9807L105.412 98.7051L105.787 101.43L113.96 100.308L113.585 97.5831ZM136.625 79.6751V76.9251H128.375V79.6751V82.4251H136.625V79.6751ZM73.771 96.2301L76.1113 97.6742L80.4453 90.6507L78.105 89.2066L75.7647 87.7625L71.4307 94.786L73.771 96.2301ZM82.5875 98.7051L82.9615 95.9807L74.7885 94.8587L74.4145 97.5831L74.0405 100.308L82.2135 101.43L82.5875 98.7051ZM59.625 79.6751V76.9251H51.375V79.6751V82.4251H59.625V79.6751ZM62.5675 83.7561L64.3096 78.5393L64.3023 78.5369L64.2951 78.5345L62.5675 83.7561ZM71.923 95.5756L70.1823 100.793L70.1945 100.797L70.2066 100.801L71.923 95.5756ZM74.585 120.221L79.7171 122.199L79.7184 122.196L74.585 120.221ZM125.433 83.7561L123.705 78.5344L123.692 78.5388L125.433 83.7561ZM113.415 120.221L108.282 122.197L108.283 122.199L113.415 120.221ZM88.9125 127.718L84.1364 124.99L84.1359 124.991L88.9125 127.718ZM94 110.503L91.2712 115.278L94 116.837L96.7288 115.278L94 110.503ZM97.5805 108.457L100.309 113.232L105.087 110.502L102.355 105.726L97.5805 108.457ZM90.4195 108.457L85.6455 105.726L82.9131 110.502L87.6907 113.232L90.4195 108.457ZM121.44 67.4046L122.591 72.7827L122.592 72.7826L121.44 67.4046ZM112.733 77.7061L113.884 83.0844L113.886 83.084L112.733 77.7061ZM76.994 69.6376L78.1178 64.2537L72.7611 63.1355L71.6158 68.4865L76.994 69.6376ZM64.828 75.4676L63.6665 80.8436L63.6748 80.8454L64.828 75.4676ZM76.455 77.9591L75.3094 83.3385L75.3252 83.3418L75.341 83.3451L76.455 77.9591ZM114.229 96.2301L117.107 100.917L111.769 91.3108L114.229 96.2301ZM113.585 97.5831L108.192 98.6617L119.037 96.858L113.585 97.5831ZM73.771 96.2301L76.442 91.4222L70.893 100.917L73.771 96.2301ZM82.5875 98.7051L88.0351 99.4624L88.0366 99.4518L82.5875 98.7051ZM59.955 91.5826L61.6957 86.3653L61.6926 86.3643L59.955 91.5826ZM74.5245 87.7491L79.7437 89.484L81.4762 84.272L76.2666 82.5323L74.5245 87.7491ZM73.738 99.4311L75.7097 94.2967L70.5772 92.3257L68.6043 97.4575L73.738 99.4311ZM66.885 117.257L72.0175 119.233L72.0187 119.23L66.885 117.257ZM81.4435 102.39L86.5769 104.365L88.5524 99.2284L83.4152 97.2557L81.4435 102.39ZM113.464 87.7491L111.724 82.5318L106.506 84.2728L108.247 89.4906L113.464 87.7491ZM128.034 91.5826L126.3 86.3632L126.292 86.3658L128.034 91.5826ZM106.551 102.39L104.578 97.2561L99.4412 99.2302L101.418 104.366L106.551 102.39ZM121.11 117.257L115.976 119.232L115.977 119.233L121.11 117.257ZM114.251 99.4311L119.384 97.4561L119.374 97.4295L119.363 97.403L114.251 99.4311ZM97.575 112.549L102.351 115.276L105.078 110.501L100.304 107.773L97.575 112.549ZM90.414 108.457L93.1428 103.681L88.3682 100.953L85.6391 105.727L90.414 108.457ZM81.746 123.62L76.9711 120.891L76.966 120.899L76.961 120.908L81.746 123.62ZM111.012 69.6376L112.16 75.0163L112.163 75.0157L111.012 69.6376ZM123.178 75.4676L124.33 80.8455L124.331 80.8453L123.178 75.4676ZM77.005 69.6376L82.3817 70.7958L83.5418 65.4102L78.1543 64.259L77.005 69.6376ZM66.555 67.4046L65.4005 72.7821L65.4057 72.7832L66.555 67.4046ZM75.267 77.7061L74.1138 83.0839L74.1214 83.0855L75.267 77.7061ZM90.425 112.549L87.6962 107.773L82.9209 110.502L85.6497 115.277L90.425 112.549ZM99.093 127.718L103.87 124.992L103.868 124.989L99.093 127.718ZM106.254 123.62L111.035 120.9L111.029 120.891L106.254 123.62ZM97.586 108.457L102.361 105.727L99.6318 100.953L94.8572 103.681L97.586 108.457ZM111.55 77.9591L106.165 79.0737L107.287 84.4959L112.701 83.3374L111.55 77.9591ZM78.127 69.8741L77.0032 75.2581L77.0129 75.2601L78.127 69.8741ZM111.545 77.9591L112.659 83.3451L118.042 82.2318L116.932 76.8481L111.545 77.9591ZM78.2975 133.878V128.378L78.2961 128.378L78.2975 133.878ZM78.2975 125.628L78.3097 120.128L78.3022 120.128L78.2947 120.128L78.2975 125.628ZM109.702 125.628L109.705 120.128H109.702V125.628ZM109.702 133.878L109.704 128.378L109.698 128.378L109.702 133.878ZM113.47 87.7491L118.688 86.011L116.95 80.7917L111.731 82.5313L113.47 87.7491ZM109.895 89.2066L107.015 84.5208L107.007 84.5256L109.895 89.2066ZM114.537 96.1036L112.597 90.9573L112.586 90.9611L114.537 96.1036ZM113.685 97.9076L108.476 99.6733L108.488 99.7094L108.501 99.7453L113.685 97.9076ZM105.412 98.7051L110.863 97.9718L110.862 97.9584L105.412 98.7051ZM106.556 102.39L101.424 104.368L103.401 109.496L108.531 107.524L106.556 102.39ZM128.375 79.6751L122.875 79.6724L122.875 79.6855L128.375 79.6751ZM136.625 79.6751L131.125 79.676L131.125 79.6783L136.625 79.6751ZM73.463 96.1036L75.4136 90.9611L75.4034 90.9573L73.463 96.1036ZM78.105 89.2066L80.9926 84.5256L80.9848 84.5208L78.105 89.2066ZM74.53 87.7491L76.2693 82.5313L71.0504 80.7917L69.3119 86.011L74.53 87.7491ZM81.438 102.396L79.4607 107.528L84.5881 109.503L86.5684 104.378L81.438 102.396ZM74.4145 97.5831L68.9418 97.0358L79.8665 98.3082L74.4145 97.5831ZM74.3155 97.9076L79.4994 99.7453L79.5262 99.6698L79.5507 99.5935L74.3155 97.9076ZM73.7435 99.4311L68.6311 97.403L66.5828 102.566L71.7662 104.563L73.7435 99.4311ZM51.375 79.6751L45.875 79.6747V79.6751H51.375ZM59.625 79.6751L65.125 79.6855V79.6751H59.625ZM94 110.503L96.7288 115.278L100.309 113.232L97.5805 108.457L94.8517 103.681L91.2712 105.727L94 110.503ZM97.5805 108.457L102.355 105.726C101.512 104.253 100.296 103.03 98.829 102.179L96.0696 106.937L93.3101 111.694C93.1005 111.573 92.9268 111.398 92.8065 111.188L97.5805 108.457ZM96.0696 106.937L98.829 102.179C97.3619 101.328 95.696 100.88 94 100.88V106.38V111.88C93.7577 111.88 93.5197 111.816 93.3101 111.694L96.0696 106.937ZM94 106.38V100.88C92.304 100.88 90.6381 101.328 89.171 102.179L91.9304 106.937L94.6899 111.694C94.4803 111.816 94.2423 111.88 94 111.88V106.38ZM91.9304 106.937L89.171 102.179C87.7039 103.03 86.4877 104.253 85.6455 105.726L90.4195 108.457L95.1935 111.188C95.0732 111.398 94.8995 111.573 94.6899 111.694L91.9304 106.937ZM90.4195 108.457L87.6907 113.232L91.2712 115.278L94 110.503L96.7288 105.727L93.1483 103.681L90.4195 108.457ZM59.955 91.5826L58.2143 96.7999L70.1823 100.793L71.923 95.5756L73.6637 90.3583L61.6957 86.3653L59.955 91.5826ZM71.923 95.5756L77.1422 97.3105L79.7437 89.484L74.5245 87.7491L69.3053 86.0143L66.7038 93.8408L71.923 95.5756ZM74.5245 87.7491L76.2666 82.5323L64.3096 78.5393L62.5675 83.7561L60.8254 88.9729L72.7824 92.9659L74.5245 87.7491ZM73.738 99.4311L68.6043 97.4575L61.7513 115.283L66.885 117.257L72.0187 119.23L78.8717 101.405L73.738 99.4311ZM74.585 120.221L79.7184 122.196L86.5769 104.365L81.4435 102.39L76.3101 100.416L69.4516 118.247L74.585 120.221ZM81.4435 102.39L83.4152 97.2557L75.7097 94.2967L73.738 99.4311L71.7663 104.566L79.4718 107.525L81.4435 102.39ZM125.433 83.7561L123.692 78.5388L111.724 82.5318L113.464 87.7491L115.205 92.9664L127.173 88.9734L125.433 83.7561ZM113.464 87.7491L108.247 89.4906L110.86 97.3171L116.077 95.5756L121.294 93.8342L118.682 86.0077L113.464 87.7491ZM116.077 95.5756L117.819 100.792L129.776 96.7994L128.034 91.5826L126.292 86.3658L114.335 90.3588L116.077 95.5756ZM106.551 102.39L101.418 104.366L108.282 122.197L113.415 120.221L118.548 118.245L111.684 100.414L106.551 102.39ZM121.11 117.257L126.243 115.282L119.384 97.4561L114.251 99.4311L109.118 101.406L115.976 119.232L121.11 117.257ZM114.251 99.4311L112.278 94.2971L104.578 97.2561L106.551 102.39L108.524 107.524L116.224 104.565L114.251 99.4311ZM88.9125 127.718L93.6886 130.445L102.351 115.276L97.575 112.549L92.7989 109.821L84.1364 124.99L88.9125 127.718ZM97.575 112.549L100.304 107.773L93.1428 103.681L90.414 108.457L87.6852 113.232L94.8462 117.324L97.575 112.549ZM90.414 108.457L85.6391 105.727L76.9711 120.891L81.746 123.62L86.5209 126.35L95.1889 111.186L90.414 108.457ZM121.44 67.4046L120.288 62.0265L109.86 64.2595L111.012 69.6376L112.163 75.0157L122.591 72.7827L121.44 67.4046ZM112.733 77.7061L113.886 83.084L124.33 80.8455L123.178 75.4676L122.025 70.0897L111.58 72.3282L112.733 77.7061ZM77.005 69.6376L78.1543 64.259L67.7043 62.026L66.555 67.4046L65.4057 72.7832L75.8557 75.0162L77.005 69.6376ZM64.828 75.4676L63.6748 80.8454L74.1138 83.0839L75.267 77.7061L76.4202 72.3284L65.9812 70.0899L64.828 75.4676ZM75.267 77.7061L80.6437 78.8643L82.3817 70.7958L77.005 69.6376L71.6283 68.4794L69.8903 76.5479L75.267 77.7061ZM90.425 112.549L85.6497 115.277L94.3177 130.446L99.093 127.718L103.868 124.989L95.2003 109.82L90.425 112.549ZM106.254 123.62L111.029 120.891L102.361 105.727L97.586 108.457L92.8111 111.186L101.479 126.35L106.254 123.62ZM97.586 108.457L94.8572 103.681L87.6962 107.773L90.425 112.549L93.1538 117.324L100.315 113.232L97.586 108.457ZM111.012 69.6376L109.863 64.2589L108.73 64.5009L109.879 69.8796L111.027 75.2583L112.16 75.0163L111.012 69.6376ZM109.879 69.8796L104.493 70.9942L106.165 79.0737L111.55 77.9591L116.936 76.8445L115.264 68.765L109.879 69.8796ZM111.55 77.9591L112.701 83.3374L113.884 83.0844L112.733 77.7061L111.582 72.3278L110.4 72.5808L111.55 77.9591ZM75.267 77.7061L74.1214 83.0855L75.3094 83.3385L76.455 77.9591L77.6006 72.5797L76.4126 72.3267L75.267 77.7061ZM78.127 69.8741L79.2508 64.4902L78.1178 64.2537L76.994 69.6376L75.8702 75.0216L77.0032 75.2581L78.127 69.8741ZM76.994 69.6376L71.6158 68.4865L69.8888 76.5549L75.267 77.7061L80.6452 78.8573L82.3722 70.7888L76.994 69.6376ZM109.879 69.8796L108.764 64.4936C99.0283 66.5075 88.981 66.5028 79.2411 64.4881L78.127 69.8741L77.0129 75.2601C88.2189 77.5781 99.7828 77.5843 110.993 75.2656L109.879 69.8796ZM76.455 77.9591L75.341 83.3451C87.6501 85.891 100.35 85.891 112.659 83.3451L111.545 77.9591L110.431 72.5731C99.5917 74.815 88.4083 74.815 77.569 72.5731L76.455 77.9591ZM111.545 77.9591L116.932 76.8481L115.265 68.7686L109.879 69.8796L104.492 70.9907L106.158 79.0702L111.545 77.9591ZM78.2975 133.878V139.378C84.6598 139.378 90.5371 135.966 93.6891 130.444L88.9125 127.718L84.1359 124.991C82.9429 127.081 80.7132 128.378 78.2975 128.378V133.878ZM81.746 123.62L76.961 120.908C77.085 120.689 77.278 120.484 77.5325 120.336L80.2962 125.091L83.06 129.847C84.5282 128.993 85.7147 127.772 86.531 126.332L81.746 123.62ZM80.2962 125.091L77.5325 120.336C77.7685 120.199 78.0367 120.127 78.3097 120.128L78.2975 125.628L78.2853 131.128C79.9623 131.131 81.6101 130.689 83.06 129.847L80.2962 125.091ZM113.415 120.221L108.283 122.199C108.194 121.968 108.163 121.719 108.191 121.473L113.654 122.115L119.116 122.757C119.296 121.228 119.1 119.679 118.547 118.243L113.415 120.221ZM113.654 122.115L108.191 121.473C108.22 121.228 108.309 120.993 108.449 120.789L112.983 123.902L117.517 127.015C118.388 125.747 118.937 124.285 119.116 122.757L113.654 122.115ZM112.983 123.902L108.449 120.789C108.589 120.585 108.776 120.418 108.995 120.303L111.556 125.17L114.117 130.038C115.478 129.321 116.645 128.284 117.517 127.015L112.983 123.902ZM111.556 125.17L108.995 120.303C109.214 120.188 109.458 120.127 109.705 120.128L109.702 125.628L109.7 131.128C111.239 131.128 112.755 130.754 114.117 130.038L111.556 125.17ZM109.702 133.878L109.701 139.378C112.579 139.378 115.414 138.678 117.961 137.338L115.399 132.471L112.838 127.604C111.872 128.112 110.796 128.378 109.704 128.378L109.702 133.878ZM115.399 132.471L117.961 137.338C120.508 135.998 122.69 134.058 124.319 131.685L119.785 128.572L115.251 125.459C114.633 126.359 113.804 127.095 112.838 127.604L115.399 132.471ZM119.785 128.572L124.319 131.685C125.948 129.313 126.975 126.579 127.311 123.721L121.848 123.079L116.386 122.436C116.259 123.521 115.869 124.558 115.251 125.459L119.785 128.572ZM121.848 123.079L127.311 123.721C127.648 120.852 127.273 117.956 126.242 115.28L121.11 117.257L115.977 119.233C116.373 120.262 116.512 121.362 116.386 122.436L121.848 123.079ZM113.47 87.7491L111.731 82.5313C110.771 82.8511 108.741 83.4604 107.015 84.5208L109.895 89.2066L112.775 93.8924C113.161 93.6548 113.727 93.4611 115.209 92.9669L113.47 87.7491ZM114.229 96.2301L111.769 91.3108C111.815 91.2879 111.905 91.2439 112.022 91.1929C112.036 91.1869 112.233 91.0994 112.49 91.0146C112.564 90.9905 112.726 90.9384 112.937 90.8883C112.943 90.8869 113.715 90.6754 114.686 90.7599C114.971 90.7847 116.939 90.9285 118.43 92.7133C120.406 95.0786 119.601 97.6653 119.219 98.5092C118.832 99.3615 118.321 99.8975 118.179 100.045C117.966 100.268 117.778 100.426 117.677 100.508C117.341 100.781 117.039 100.955 117.026 100.963C116.936 101.017 116.863 101.056 116.826 101.076C116.747 101.119 116.685 101.15 116.655 101.165C116.588 101.198 116.538 101.221 116.513 101.232C116.416 101.276 116.392 101.282 116.488 101.246L114.537 96.1036L112.586 90.9611C112.363 91.046 112.157 91.1293 111.973 91.2128C111.926 91.234 111.859 91.265 111.782 91.3032C111.746 91.3207 111.68 91.354 111.598 91.3982C111.559 91.4191 111.485 91.4595 111.394 91.5137C111.38 91.5223 111.077 91.6968 110.741 91.9703C110.64 92.0523 110.452 92.2105 110.239 92.4329C110.097 92.5806 109.585 93.1167 109.199 93.969C108.817 94.813 108.012 97.3997 109.988 99.765C111.479 101.55 113.447 101.694 113.732 101.718C114.703 101.803 115.475 101.591 115.481 101.59C115.692 101.54 115.855 101.488 115.929 101.463C116.188 101.378 116.387 101.29 116.405 101.282C116.529 101.228 116.629 101.179 116.689 101.149L114.229 96.2301ZM114.537 96.1036L116.477 101.25C116.69 101.17 116.994 101.069 117.828 100.79L116.077 95.5756L114.326 90.3617C113.653 90.5879 113.055 90.7843 112.597 90.9573L114.537 96.1036ZM116.077 95.5756L121.295 93.8375L118.688 86.011L113.47 87.7491L108.252 89.4873L110.859 97.3138L116.077 95.5756ZM114.251 99.4311L119.363 97.403C119.2 96.99 119.04 96.5545 118.868 96.0699L113.685 97.9076L108.501 99.7453C108.691 100.283 108.902 100.864 109.139 101.459L114.251 99.4311ZM113.685 97.9076L118.893 96.1419C118.864 96.0565 118.88 96.0943 118.911 96.2146C118.92 96.2463 118.934 96.3021 118.95 96.3749C118.958 96.4094 118.971 96.4701 118.986 96.5469C118.993 96.5847 119.004 96.6469 119.016 96.7243C119.024 96.7723 119.052 96.9527 119.068 97.1859C119.074 97.2721 119.095 97.5835 119.065 97.9811C119.052 98.1565 119.011 98.6186 118.838 99.1822C118.76 99.4335 118.208 101.352 116.129 102.439C113.341 103.896 110.955 102.481 110.236 101.93C109.496 101.363 109.09 100.747 108.981 100.579C108.692 100.139 108.535 99.7546 108.504 99.6806C108.4 99.4308 108.338 99.2281 108.324 99.1825C108.299 99.1002 108.281 99.033 108.27 98.9918C108.229 98.8419 108.205 98.7232 108.192 98.6617L113.585 97.5831L118.979 96.5045C118.964 96.4293 118.936 96.3002 118.895 96.1441C118.883 96.1013 118.864 96.0329 118.839 95.9495C118.824 95.9028 118.762 95.6993 118.658 95.449C118.627 95.3748 118.47 94.9904 118.181 94.5498C118.071 94.3825 117.666 93.7657 116.926 93.1989C116.207 92.6475 113.821 91.2331 111.033 92.6901C108.954 93.7767 108.401 95.6955 108.324 95.9469C108.151 96.5105 108.11 96.9726 108.097 97.1481C108.066 97.5459 108.088 97.8576 108.094 97.9441C108.11 98.1779 108.138 98.3592 108.146 98.4084C108.158 98.487 108.17 98.5507 108.177 98.5904C108.192 98.6709 108.207 98.7365 108.216 98.7771C108.235 98.8624 108.253 98.9361 108.268 98.9915C108.324 99.2067 108.395 99.4342 108.476 99.6733L113.685 97.9076ZM105.412 98.7051L99.9616 99.4384C100.234 101.46 101.063 103.43 101.424 104.368L106.556 102.39L111.689 100.413C111.126 98.9522 110.921 98.4037 110.863 97.9718L105.412 98.7051ZM106.556 102.39L108.531 107.524L116.225 104.565L114.251 99.4311L112.277 94.2976L104.582 97.2566L106.556 102.39ZM109.895 89.2066L107.007 84.5256C104.514 86.064 102.52 88.2935 101.27 90.9433L106.244 93.2905L111.218 95.6378C111.559 94.9152 112.103 94.3071 112.783 93.8876L109.895 89.2066ZM106.244 93.2905L101.27 90.9433C100.02 93.593 99.5656 96.549 99.9634 99.4518L105.412 98.7051L110.862 97.9584C110.753 97.1667 110.877 96.3605 111.218 95.6378L106.244 93.2905ZM113.585 97.5831L119.037 96.858C119.143 97.6488 119.016 98.4531 118.674 99.1735L113.707 96.8113L108.74 94.449C108.169 95.6497 107.958 96.9902 108.134 98.3082L113.585 97.5831ZM113.707 96.8113L118.674 99.1735C118.331 99.894 117.787 100.5 117.107 100.917L114.229 96.2301L111.351 91.5432C110.218 92.2389 109.311 93.2483 108.74 94.449L113.707 96.8113ZM128.375 79.6751L122.875 79.6855C122.875 79.4307 122.954 79.1823 123.104 78.9756L127.565 82.1922L132.026 85.4089C133.232 83.7366 133.879 81.7263 133.875 79.6647L128.375 79.6751ZM127.565 82.1922L123.104 78.9756C123.253 78.7689 123.463 78.6145 123.705 78.5345L125.433 83.7561L127.16 88.9778C129.117 88.3302 130.82 87.0812 132.026 85.4089L127.565 82.1922ZM128.034 91.5826L129.768 96.802C133.361 95.608 136.498 93.312 138.718 90.2331L134.257 87.0164L129.795 83.7998C128.933 84.9959 127.708 85.8952 126.3 86.3632L128.034 91.5826ZM134.257 87.0164L138.718 90.2331C140.935 87.1581 142.127 83.4628 142.125 79.6719L136.625 79.6751L131.125 79.6783C131.126 81.1577 130.661 82.5998 129.795 83.7998L134.257 87.0164ZM66.885 117.257L61.7525 115.28C60.7181 117.965 60.3532 120.863 60.6892 123.721L66.1516 123.079L71.614 122.436C71.4865 121.352 71.6249 120.253 72.0175 119.233L66.885 117.257ZM66.1516 123.079L60.6892 123.721C61.0252 126.579 62.0521 129.313 63.6812 131.685L68.2152 128.572L72.7493 125.459C72.1311 124.558 71.7415 123.521 71.614 122.436L66.1516 123.079ZM68.2152 128.572L63.6812 131.685C65.3102 134.058 67.4924 135.998 70.0392 137.338L72.6006 132.471L75.1619 127.604C74.1955 127.095 73.3674 126.359 72.7493 125.459L68.2152 128.572ZM72.6006 132.471L70.0392 137.338C72.5861 138.678 75.4209 139.378 78.2989 139.378L78.2975 133.878L78.2961 128.378C77.2041 128.378 76.1283 128.112 75.1619 127.604L72.6006 132.471ZM78.2975 125.628L78.2947 120.128C78.5421 120.127 78.7858 120.188 79.0048 120.303L76.4441 125.17L73.8835 130.038C75.2454 130.754 76.7614 131.128 78.3003 131.128L78.2975 125.628ZM76.4441 125.17L79.0048 120.303C79.2237 120.418 79.4113 120.585 79.5514 120.789L75.0174 123.902L70.4834 127.015C71.3546 128.284 72.5215 129.321 73.8835 130.038L76.4441 125.17ZM75.0174 123.902L79.5514 120.789C79.6914 120.993 79.7797 121.228 79.8086 121.473L74.3461 122.115L68.8837 122.757C69.0632 124.285 69.6123 125.747 70.4834 127.015L75.0174 123.902ZM74.3461 122.115L79.8086 121.473C79.8374 121.719 79.806 121.968 79.7171 122.199L74.585 120.221L69.4529 118.243C68.8995 119.679 68.7041 121.228 68.8837 122.757L74.3461 122.115ZM71.923 95.5756L70.2066 100.801C70.9602 101.048 71.3099 101.17 71.5226 101.25L73.463 96.1036L75.4034 90.9573C74.9451 90.7845 74.3928 90.5978 73.6394 90.3503L71.923 95.5756ZM73.463 96.1036L71.5124 101.246C71.5957 101.278 71.5613 101.267 71.4554 101.219C71.4276 101.206 71.3818 101.184 71.3236 101.155C71.2962 101.142 71.2495 101.118 71.1915 101.087C71.1635 101.072 71.116 101.046 71.0576 101.013C71.0326 100.999 70.874 100.909 70.6829 100.778C70.6716 100.77 70.2736 100.51 69.8621 100.09C69.737 99.9626 69.5119 99.7216 69.2762 99.3833C69.0903 99.1165 68.5996 98.3756 68.3884 97.281C68.1308 95.9454 68.3167 94.0025 69.8151 92.4367C71.025 91.1722 72.4271 90.8865 72.9259 90.8073C73.9561 90.6436 74.7791 90.8285 74.8556 90.8436C75.1142 90.8948 75.3136 90.9539 75.4066 90.9825C75.604 91.0433 75.7544 91.1021 75.8096 91.1239C76.021 91.2074 76.1824 91.2875 76.1961 91.2941C76.3011 91.3454 76.385 91.3905 76.442 91.4222L73.771 96.2301L71.1 101.038C71.1694 101.077 71.2629 101.127 71.374 101.181C71.3907 101.189 71.5544 101.27 71.767 101.354C71.8225 101.376 71.9731 101.435 72.1707 101.496C72.2638 101.524 72.4633 101.584 72.7219 101.635C72.7985 101.65 73.6215 101.835 74.6518 101.671C75.1506 101.592 76.5527 101.306 77.7626 100.042C79.261 98.4758 79.447 96.5329 79.1893 95.1973C78.9781 94.1027 78.4874 93.3618 78.3015 93.095C78.0658 92.7566 77.8407 92.5156 77.7156 92.3881C77.304 91.9684 76.9058 91.7076 76.8943 91.6997C76.7028 91.5687 76.5435 91.4785 76.5176 91.4637C76.4583 91.4298 76.4096 91.4034 76.38 91.3876C76.319 91.3549 76.2681 91.3292 76.2352 91.3128C76.1661 91.2783 76.1044 91.2492 76.055 91.2264C75.8625 91.1378 75.6493 91.0505 75.4136 90.9611L73.463 96.1036ZM78.105 89.2066L80.9848 84.5208C79.2594 83.4604 77.2286 82.8511 76.2693 82.5313L74.53 87.7491L72.7907 92.9669C74.2734 93.4611 74.8386 93.6548 75.2252 93.8924L78.105 89.2066ZM74.53 87.7491L69.3119 86.011L66.7049 93.8375L71.923 95.5756L77.1411 97.3138L79.7481 89.4873L74.53 87.7491ZM81.438 102.396L86.5684 104.378C86.9432 103.408 87.7565 101.467 88.0351 99.4624L82.5875 98.7051L77.1399 97.9478C77.0775 98.3965 76.8678 98.9634 76.3076 100.413L81.438 102.396ZM74.4145 97.5831L79.8872 98.1304C79.8853 98.1495 79.8837 98.1642 79.8831 98.1697C79.8808 98.1911 79.8848 98.1545 79.8871 98.1318C79.8886 98.1179 79.8933 98.0717 79.8981 98.0127C79.8991 98.0005 79.9177 97.7938 79.9163 97.5351C79.916 97.492 79.9219 96.9927 79.7881 96.3839C79.7513 96.2164 79.5346 95.1332 78.6707 94.0788C78.1599 93.4553 77.2304 92.6126 75.7979 92.2408C74.3167 91.8564 73.0067 92.1585 72.1158 92.5687C70.6779 93.2308 69.9714 94.3209 69.8779 94.4575C69.6458 94.7966 69.5037 95.0873 69.444 95.2135C69.3157 95.4849 69.239 95.7068 69.2167 95.7714C69.1598 95.9363 69.1233 96.069 69.1171 96.0913C69.1043 96.1373 69.0948 96.1737 69.0912 96.1877C69.0868 96.2046 69.0834 96.2182 69.082 96.2236C69.0806 96.2294 69.0792 96.2348 69.079 96.2355C69.0782 96.2388 69.0809 96.2278 69.0844 96.2146C69.1004 96.1532 69.1038 96.1486 69.0803 96.2217L74.3155 97.9076L79.5507 99.5935C79.6317 99.3421 79.6873 99.1478 79.7281 98.9915C79.7378 98.9545 79.745 98.9258 79.7473 98.9166C79.7998 98.7076 79.7162 99.0663 79.6154 99.3585C79.5932 99.4228 79.5166 99.6445 79.3883 99.9157C79.3287 100.042 79.1867 100.332 78.9546 100.672C78.8611 100.808 78.1546 101.898 76.7168 102.56C75.8259 102.97 74.5159 103.273 73.0347 102.888C71.6022 102.516 70.6727 101.674 70.1619 101.05C69.298 99.9958 69.0814 98.9126 69.0446 98.7452C68.9108 98.1365 68.9167 97.6374 68.9164 97.5945C68.915 97.3363 68.9336 97.1305 68.9345 97.1193C68.9392 97.0613 68.9438 97.0164 68.9451 97.0041C68.9471 96.9845 68.9507 96.952 68.9478 96.9785C68.9466 96.9891 68.9444 97.0098 68.9418 97.0358L74.4145 97.5831ZM74.3155 97.9076L69.1316 96.0699C68.973 96.5174 68.8061 96.9618 68.6311 97.403L73.7435 99.4311L78.8559 101.459C79.081 100.892 79.2955 100.32 79.4994 99.7453L74.3155 97.9076ZM73.7435 99.4311L71.7662 104.563L79.4607 107.528L81.438 102.396L83.4153 97.2633L75.7208 94.2988L73.7435 99.4311ZM73.771 96.2301L70.893 100.917C70.2132 100.5 69.669 99.894 69.3264 99.1735L74.2932 96.8113L79.2601 94.449C78.689 93.2483 77.782 92.2389 76.649 91.5432L73.771 96.2301ZM74.2932 96.8113L69.3264 99.1735C68.9837 98.4531 68.8573 97.6488 68.9625 96.858L74.4145 97.5831L79.8665 98.3082C80.0418 96.9902 79.8311 95.6497 79.2601 94.449L74.2932 96.8113ZM82.5875 98.7051L88.0366 99.4518C88.4344 96.549 87.9805 93.593 86.73 90.9433L81.756 93.2905L76.7821 95.6378C77.1231 96.3605 77.2469 97.1667 77.1384 97.9584L82.5875 98.7051ZM81.756 93.2905L86.73 90.9433C85.4795 88.2935 83.4863 86.064 80.9926 84.5256L78.105 89.2066L75.2174 93.8876C75.8975 94.3071 76.4411 94.9152 76.7821 95.6378L81.756 93.2905ZM51.375 79.6751H45.875C45.875 87.4483 50.8489 94.3474 58.2174 96.8009L59.955 91.5826L61.6926 86.3643C58.8201 85.4078 56.875 82.7149 56.875 79.6751H51.375ZM62.5675 83.7561L64.2951 78.5345C64.537 78.6145 64.7475 78.7689 64.8965 78.9756L60.4352 82.1922L55.9739 85.4089C57.1797 87.0812 58.8826 88.3302 60.8399 88.9778L62.5675 83.7561ZM60.4352 82.1922L64.8965 78.9756C65.0455 79.1822 65.1255 79.4307 65.125 79.6855L59.625 79.6751L54.125 79.6647C54.1211 81.7264 54.7682 83.7366 55.9739 85.4089L60.4352 82.1922ZM59.625 79.6751H65.125C65.125 80.4298 64.4312 81.0088 63.6665 80.8436L64.828 75.4676L65.9895 70.0916C59.8788 68.7714 54.125 73.4425 54.125 79.6751H59.625ZM66.555 67.4046L67.7095 62.0271C65.0773 61.462 62.3577 61.4929 59.7392 62.1173L61.0149 67.4673L62.2906 72.8173C63.3136 72.5734 64.3725 72.5614 65.4005 72.7821L66.555 67.4046ZM61.0149 67.4673L59.7392 62.1173C57.1206 62.7417 54.6748 63.9438 52.5809 65.6358L56.0377 69.9137L59.4944 74.1917C60.3123 73.5308 61.2677 73.0612 62.2906 72.8173L61.0149 67.4673ZM56.0377 69.9137L52.5809 65.6358C50.4871 67.3277 48.7981 69.4666 47.6378 71.8957L52.6007 74.2663L57.5636 76.6369C58.0168 75.688 58.6765 74.8526 59.4944 74.1917L56.0377 69.9137ZM52.6007 74.2663L47.6378 71.8957C46.4775 74.3248 45.8752 76.9827 45.875 79.6747L51.375 79.6751L56.875 79.6755C56.8751 78.624 57.1103 77.5857 57.5636 76.6369L52.6007 74.2663ZM99.093 127.718L94.3156 130.443C95.8614 133.153 98.094 135.412 100.804 136.985L103.565 132.228L106.325 127.471C105.307 126.88 104.461 126.027 103.87 124.992L99.093 127.718ZM103.565 132.228L100.804 136.985C103.509 138.555 106.58 139.38 109.707 139.378L109.702 133.878L109.698 128.378C108.514 128.379 107.35 128.066 106.325 127.471L103.565 132.228ZM109.702 125.628V120.128C110.26 120.128 110.766 120.428 111.035 120.9L106.254 123.62L101.473 126.34C103.15 129.288 106.285 131.128 109.702 131.128V125.628ZM136.625 79.6751L142.125 79.6742C142.125 76.983 141.522 74.326 140.363 71.8975L135.4 74.2679L130.437 76.6383C130.89 77.5869 131.125 78.6248 131.125 79.676L136.625 79.6751ZM135.4 74.2679L140.363 71.8975C139.203 69.4691 137.514 67.3308 135.422 65.639L131.964 69.9163L128.507 74.1936C129.324 74.8545 129.983 75.6897 130.437 76.6383L135.4 74.2679ZM131.964 69.9163L135.422 65.639C133.329 63.9472 130.884 62.7448 128.266 62.1197L126.989 67.4694L125.712 72.819C126.734 73.0631 127.689 73.5328 128.507 74.1936L131.964 69.9163ZM126.989 67.4694L128.266 62.1197C125.649 61.4947 122.919 61.4629 120.287 62.0266L121.44 67.4046L122.592 72.7826C123.62 72.5624 124.689 72.5749 125.712 72.819L126.989 67.4694ZM123.178 75.4676L124.331 80.8453C124.156 80.8829 123.969 80.8806 123.796 80.8392L125.073 75.4895L126.35 70.1399C124.928 69.8005 123.454 69.7832 122.024 70.0899L123.178 75.4676ZM125.073 75.4895L123.796 80.8392C123.622 80.7977 123.459 80.7177 123.32 80.6053L126.778 76.3286L130.237 72.052C129.1 71.1327 127.772 70.4794 126.35 70.1399L125.073 75.4895ZM126.778 76.3286L123.32 80.6053C123.181 80.4928 123.069 80.3506 122.992 80.1892L127.956 77.821L132.92 75.4527C132.29 74.1333 131.374 72.9713 130.237 72.052L126.778 76.3286ZM127.956 77.821L122.992 80.1892C122.915 80.0278 122.875 79.8512 122.875 79.6724L128.375 79.6751L133.875 79.6779C133.876 78.2159 133.549 76.7722 132.92 75.4527L127.956 77.821Z" fill="white" mask="url(#path-2-inside-1_824_152)"/>
<path d="M134.997 107.75C143.704 112.128 149 117.914 149 124.25C149 137.917 124.376 149 94 149C63.6235 149 39 137.917 39 124.25C39 117.914 44.2965 112.128 53.003 107.75" stroke="white" stroke-width="8.25" stroke-linecap="round"/>
<circle cx="94.3754" cy="94.3754" r="91.4937" stroke="white" stroke-width="5.76338"/>
</svg>
