<svg width="189" height="189" viewBox="0 0 189 189" fill="none" xmlns="http://www.w3.org/2000/svg">
<circle cx="94.3754" cy="94.3754" r="91.4937" stroke="white" stroke-width="5.76338"/>
<path d="M86.4217 72.4707C80.7927 76.7383 75.4665 81.3912 70.4814 86.3957C46.9922 109.885 35.0989 136.058 43.9032 144.871C52.7076 153.675 78.8893 141.774 102.37 118.293C107.375 113.305 112.028 107.976 116.295 102.344" stroke="white" stroke-width="7.64286" stroke-linecap="round" stroke-linejoin="round"/>
<path d="M116.287 102.349C130.138 120.734 135.779 138.029 128.94 144.867C120.128 153.68 93.9542 141.778 70.465 118.297C46.9924 94.7998 35.0991 68.6346 43.9034 59.822C50.7421 52.9917 68.0368 58.6327 86.4218 72.4751" stroke="white" stroke-width="7.64286" stroke-linecap="round" stroke-linejoin="round"/>
<path d="M82.2969 102.346C82.2969 103.442 82.732 104.492 83.5064 105.266C84.2809 106.041 85.3312 106.476 86.4265 106.476C87.5217 106.476 88.5721 106.041 89.3466 105.266C90.121 104.492 90.5561 103.442 90.5561 102.346C90.5561 101.251 90.121 100.201 89.3466 99.4263C88.5721 98.6518 87.5217 98.2168 86.4265 98.2168C85.3312 98.2168 84.2809 98.6518 83.5064 99.4263C82.732 100.201 82.2969 101.251 82.2969 102.346ZM103.027 66.3857C100.426 65.9315 100.426 62.2066 103.027 61.7606C107.624 60.9644 111.878 58.8159 115.247 55.5895C118.616 52.3632 120.947 48.2057 121.941 43.6481L122.09 42.9296C122.651 40.3692 126.302 40.3527 126.88 42.9048L127.078 43.739C128.115 48.2739 130.468 52.4018 133.841 55.6049C137.215 58.808 141.459 60.9437 146.041 61.7441C148.651 62.1983 148.651 65.948 146.041 66.394C141.459 67.1944 137.215 69.3301 133.841 72.5332C130.468 75.7363 128.115 79.8641 127.078 84.3991L126.88 85.2333C126.302 87.7936 122.651 87.7771 122.09 85.2168L121.925 84.4982C120.93 79.9407 118.6 75.7831 115.231 72.5568C111.862 69.3305 107.607 67.1819 103.011 66.3857H103.027Z" stroke="white" stroke-width="7.64286" stroke-linecap="round" stroke-linejoin="round"/>
</svg>
