<svg width="189" height="189" viewBox="0 0 189 189" fill="none" xmlns="http://www.w3.org/2000/svg">
<circle cx="94.3754" cy="94.3754" r="91.4937" stroke="white" stroke-width="5.76338"/>
<path fill-rule="evenodd" clip-rule="evenodd" d="M92.0841 32.6474C92.8547 32.2227 93.7202 32 94.6 32C95.4798 32 96.3453 32.2227 97.1159 32.6474L111.016 40.3202C111.636 40.6391 112.185 41.0792 112.632 41.6143C113.079 42.1494 113.414 42.7687 113.617 43.4355C113.82 44.1023 113.888 44.8031 113.815 45.4965C113.743 46.1898 113.532 46.8616 113.196 47.4721C112.859 48.0825 112.403 48.6192 111.856 49.0505C111.308 49.4817 110.679 49.7988 110.007 49.9828C109.335 50.1668 108.632 50.214 107.941 50.1217C107.25 50.0295 106.585 49.7995 105.984 49.4455L94.6 43.1697L83.2159 49.4455C82.6154 49.7995 81.9499 50.0295 81.2589 50.1217C80.568 50.214 79.8655 50.1668 79.1931 49.9828C78.5207 49.7988 77.8921 49.4817 77.3443 49.0505C76.7966 48.6192 76.341 48.0825 76.0044 47.4721C75.6678 46.8616 75.457 46.1898 75.3846 45.4965C75.3122 44.8031 75.3796 44.1023 75.5829 43.4355C75.7861 42.7687 76.121 42.1494 76.5678 41.6143C77.0146 41.0792 77.5642 40.6391 78.1841 40.3202L92.0841 32.6474ZM62.6509 54.8457C62.9814 55.4453 63.1905 56.1041 63.2663 56.7846C63.3422 57.465 63.2832 58.1538 63.0928 58.8114C62.9024 59.4691 62.5843 60.0828 62.1567 60.6175C61.7291 61.1522 61.2003 61.5974 60.6006 61.9277L55.0058 65.0135L60.6006 68.0993C61.8116 68.7666 62.708 69.8876 63.0925 71.2157C63.477 72.5439 63.3181 73.9704 62.6509 75.1814C61.9836 76.3924 60.8626 77.2887 59.5344 77.6732C58.2063 78.0577 56.7798 77.8989 55.5688 77.2316L49.425 73.84V78.9135C49.425 80.296 48.8758 81.6218 47.8983 82.5993C46.9208 83.5768 45.5949 84.126 44.2125 84.126C42.8301 84.126 41.5042 83.5768 40.5267 82.5993C39.5492 81.6218 39 80.296 39 78.9135V65.0135C38.9998 64.0808 39.2499 63.1651 39.7242 62.3619C40.1986 61.5587 40.8797 60.8976 41.6966 60.4474L55.5688 52.8024C56.7789 52.1343 58.2048 51.9743 59.533 52.3575C60.8611 52.7407 61.9826 53.6357 62.6509 54.8457ZM126.549 54.8457C126.879 54.245 127.325 53.7155 127.86 53.2872C128.395 52.859 129.01 52.5406 129.668 52.3501C130.327 52.1597 131.016 52.101 131.698 52.1774C132.379 52.2538 133.038 52.4638 133.638 52.7954L147.503 60.4474C148.32 60.8976 149.001 61.5587 149.476 62.3619C149.95 63.1651 150.2 64.0808 150.2 65.0135V78.9135C150.2 80.296 149.651 81.6218 148.673 82.5993C147.696 83.5768 146.37 84.126 144.988 84.126C143.605 84.126 142.279 83.5768 141.302 82.5993C140.324 81.6218 139.775 80.296 139.775 78.9135V73.84L133.631 77.2316C133.032 77.562 132.373 77.7711 131.692 77.8468C131.012 77.9226 130.323 77.8636 129.666 77.6732C128.337 77.2887 127.216 76.3924 126.549 75.1814C126.219 74.5817 126.01 73.9229 125.934 73.2425C125.858 72.562 125.917 71.8734 126.108 71.2157C126.492 69.8876 127.388 68.7666 128.599 68.0993L134.201 65.0135L128.599 61.9277C127.999 61.5974 127.469 61.1519 127.041 60.6166C126.613 60.0814 126.294 59.467 126.104 58.8085C125.913 58.15 125.855 57.4604 125.931 56.7793C126.008 56.0981 126.218 55.4386 126.549 54.8387M76.1339 82.6248C76.4647 82.0248 76.9107 81.4959 77.4462 81.0683C77.9817 80.6408 78.5963 80.3231 79.2547 80.1333C79.9131 79.9435 80.6025 79.8854 81.2834 79.9623C81.9643 80.0392 82.6233 80.2496 83.2229 80.5815L94.6 86.8574L105.984 80.5815C106.585 80.2275 107.25 79.9976 107.941 79.9053C108.632 79.813 109.335 79.8603 110.007 80.0443C110.679 80.2283 111.308 80.5453 111.856 80.9765C112.403 81.4078 112.859 81.9445 113.196 82.555C113.532 83.1654 113.743 83.8372 113.815 84.5306C113.888 85.2239 113.82 85.9247 113.617 86.5916C113.414 87.2584 113.079 87.8777 112.632 88.4128C112.185 88.9479 111.636 89.3879 111.016 89.7069L99.8125 95.8924V106.714C99.8125 108.096 99.2633 109.422 98.2858 110.399C97.3083 111.377 95.9824 111.926 94.6 111.926C93.2176 111.926 91.8917 111.377 90.9142 110.399C89.9367 109.422 89.3875 108.096 89.3875 106.714V95.8924L78.1841 89.7069C77.5844 89.3766 77.0556 88.9313 76.628 88.3966C76.2004 87.8619 75.8823 87.2482 75.6919 86.5906C75.5015 85.9329 75.4425 85.2442 75.5184 84.5637C75.5942 83.8833 75.8033 83.2244 76.1339 82.6248ZM44.2125 104.976C45.5949 104.976 46.9208 105.525 47.8983 106.503C48.8758 107.48 49.425 108.806 49.425 110.189V121.01L60.6006 127.174C61.8116 127.842 62.708 128.963 63.0925 130.291C63.477 131.619 63.3181 133.045 62.6509 134.256C61.9836 135.467 60.8626 136.364 59.5344 136.748C58.2063 137.133 56.7798 136.974 55.5688 136.307L41.6966 128.655C40.8797 128.204 40.1986 127.543 39.7242 126.74C39.2499 125.937 38.9998 125.021 39 124.089V110.189C39 108.806 39.5492 107.48 40.5267 106.503C41.5042 105.525 42.8301 104.976 44.2125 104.976ZM144.988 104.976C146.37 104.976 147.696 105.525 148.673 106.503C149.651 107.48 150.2 108.806 150.2 110.189V124.089C150.2 125.021 149.95 125.937 149.476 126.74C149.001 127.543 148.32 128.204 147.503 128.655L133.631 136.3C133.031 136.654 132.365 136.884 131.674 136.976C130.983 137.068 130.281 137.021 129.608 136.837C128.936 136.653 128.307 136.336 127.76 135.905C127.212 135.473 126.756 134.937 126.42 134.326C126.083 133.716 125.872 133.044 125.8 132.351C125.728 131.657 125.795 130.956 125.998 130.29C126.201 129.623 126.536 129.004 126.983 128.468C127.43 127.933 127.98 127.493 128.599 127.174L139.775 121.01V110.189C139.775 108.806 140.324 107.48 141.302 106.503C142.279 105.525 143.605 104.976 144.988 104.976ZM94.6 132.776C95.9824 132.776 97.3083 133.325 98.2858 134.303C99.2633 135.28 99.8125 136.606 99.8125 137.989V143.062L105.984 139.657C107.19 139.036 108.591 138.91 109.889 139.305C111.186 139.701 112.278 140.587 112.933 141.775C113.589 142.962 113.755 144.359 113.397 145.667C113.039 146.976 112.185 148.093 111.016 148.782L97.1159 156.455C96.3453 156.879 95.4798 157.102 94.6 157.102C93.7202 157.102 92.8547 156.879 92.0841 156.455L78.1841 148.782C77.5642 148.463 77.0146 148.023 76.5678 147.488C76.121 146.953 75.7861 146.333 75.5829 145.667C75.3796 145 75.3122 144.299 75.3846 143.606C75.457 142.912 75.6678 142.24 76.0044 141.63C76.341 141.02 76.7966 140.483 77.3443 140.052C77.8921 139.62 78.5207 139.303 79.1931 139.119C79.8655 138.935 80.568 138.888 81.2589 138.98C81.9499 139.073 82.6154 139.303 83.2159 139.657L89.3875 143.062V137.989C89.3875 136.606 89.9367 135.28 90.9142 134.303C91.8917 133.325 93.2176 132.776 94.6 132.776Z" fill="white"/>
</svg>
