<svg width="423" height="423" viewBox="0 0 423 423" fill="none" xmlns="http://www.w3.org/2000/svg">
<path fill-rule="evenodd" clip-rule="evenodd" d="M0.703125 40.2252C0.703125 29.7425 4.86736 19.6892 12.2797 12.2768C19.6921 4.86443 29.7454 0.700195 40.2281 0.700195H277.378C287.861 0.700195 297.914 4.86443 305.327 12.2768C312.739 19.6892 316.903 29.7425 316.903 40.2252V349.838C316.903 369.056 324.538 387.487 338.127 401.076C351.716 414.666 370.147 422.3 389.366 422.3H73.1656C53.9474 422.3 35.5163 414.666 21.9269 401.076C8.33755 387.487 0.703125 369.056 0.703125 349.838V40.2252ZM99.5156 224.675C94.2743 224.675 89.2476 226.757 85.5414 230.464C81.8352 234.17 79.7531 239.196 79.7531 244.438C79.7531 249.679 81.8352 254.706 85.5414 258.412C89.2476 262.118 94.2743 264.2 99.5156 264.2H218.091C223.332 264.2 228.359 262.118 232.065 258.412C235.771 254.706 237.853 249.679 237.853 244.438C237.853 239.196 235.771 234.17 232.065 230.464C228.359 226.757 223.332 224.675 218.091 224.675H99.5156ZM99.5156 303.725C94.2743 303.725 89.2476 305.807 85.5414 309.514C81.8352 313.22 79.7531 318.246 79.7531 323.488C79.7531 328.729 81.8352 333.756 85.5414 337.462C89.2476 341.168 94.2743 343.25 99.5156 343.25H218.091C223.332 343.25 228.359 341.168 232.065 337.462C235.771 333.756 237.853 328.729 237.853 323.488C237.853 318.246 235.771 313.22 232.065 309.514C228.359 305.807 223.332 303.725 218.091 303.725H99.5156ZM79.7531 99.5127C79.7531 94.2714 81.8352 89.2447 85.5414 85.5385C89.2476 81.8323 94.2743 79.7502 99.5156 79.7502H218.091C223.332 79.7502 228.359 81.8323 232.065 85.5385C235.771 89.2447 237.853 94.2714 237.853 99.5127V165.388C237.853 170.629 235.771 175.656 232.065 179.362C228.359 183.068 223.332 185.15 218.091 185.15H99.5156C94.2743 185.15 89.2476 183.068 85.5414 179.362C81.8352 175.656 79.7531 170.629 79.7531 165.388V99.5127Z" fill="#4C839E"/>
<path d="M382.772 119.275H356.422V349.838C356.422 358.573 359.892 366.951 366.069 373.128C372.246 379.305 380.624 382.775 389.359 382.775C398.095 382.775 406.473 379.305 412.65 373.128C418.827 366.951 422.297 358.573 422.297 349.838V158.8C422.297 148.318 418.133 138.264 410.72 130.852C403.308 123.44 393.255 119.275 382.772 119.275Z" fill="#4C839E"/>
</svg>
