<svg width="407" height="294" viewBox="0 0 407 294" fill="none" xmlns="http://www.w3.org/2000/svg">
<path d="M112.396 0.389648C111.368 0.389648 110.253 0.389647 109.224 0.475389C80.1574 1.16133 44.4887 9.64981 0.0742188 29.3705V238.067C52.2055 213.373 91.5611 206.257 123.714 209.686C135.461 210.887 146.265 213.545 156.211 217.06L117.541 149.495C110.167 152.496 102.193 154.211 93.7904 154.211C59.3135 154.211 31.1986 126.088 31.1986 91.6193C31.1986 57.151 59.3135 29.0275 93.7904 29.0275C128.259 29.0275 156.382 57.151 156.382 91.6193C156.382 112.197 146.35 130.461 130.917 141.95L180.047 227.692C185.363 230.436 190.422 233.437 195.395 236.438V28.0844C175.503 12.908 152.352 2.36172 121.657 0.646878C118.656 0.475393 115.569 0.389648 112.396 0.389648ZM294.17 0.389648C290.997 0.389648 287.825 0.475393 284.824 0.646878C254.128 2.36172 231.064 12.908 211.086 28.0844V236.438C231.578 223.92 254.043 212.687 282.766 209.686C314.92 206.257 354.361 213.373 406.406 238.067V29.3705C362.078 9.64981 326.409 1.16133 297.342 0.475389C296.228 0.475389 295.199 0.389648 294.17 0.389648ZM93.7904 44.4611C67.6562 44.4611 46.6322 65.468 46.6322 91.6193C46.6322 117.771 67.6562 138.778 93.7904 138.778C119.942 138.778 140.949 117.771 140.949 91.6193C140.949 65.468 119.942 44.4611 93.7904 44.4611ZM95.7625 56.3793H98.1633C77.4994 71.9844 68.3421 92.4768 69.5511 116.57C47.2067 83.3023 70.64 57.0652 95.7625 56.3793ZM106.995 224.863C79.5572 225.12 45.4318 233.265 0.0742188 255.73V292.17C52.2055 267.477 91.5611 260.36 123.714 263.79C139.662 265.504 153.638 269.706 166.414 275.193C162.384 280.424 158.44 286.597 154.496 293.799H200.196L169.329 240.039C155.096 232.922 139.92 227.521 122.085 225.634C117.284 225.12 112.225 224.863 106.995 224.863ZM296.399 224.863C292.284 224.948 288.339 225.206 284.481 225.634C255.329 228.721 233.379 241.068 211.086 255.13V255.387C205.855 253.758 200.539 253.415 195.395 254.358L217.945 293.799H254.986C249.841 286.769 244.868 280.595 239.809 275.279C252.671 269.706 266.732 265.504 282.766 263.79C314.92 260.36 354.361 267.477 406.406 292.17V255.73C360.877 233.18 326.58 224.948 299.057 224.863H296.399Z" fill="#4C839E"/>
</svg>
