<svg width="24" height="28" viewBox="0 0 24 28" fill="none" xmlns="http://www.w3.org/2000/svg">
<path d="M0.407959 25.7425V2.27697C0.407959 1.6346 0.63512 1.09576 1.08944 0.660461C1.54376 0.225158 2.0738 0.008262 2.67956 0.00977347C2.86886 0.00977347 3.06801 0.037736 3.27699 0.0936603C3.48598 0.149585 3.68437 0.234982 3.87215 0.349854L22.3857 12.0826C22.7265 12.3093 22.9824 12.5927 23.1535 12.9328C23.3246 13.2729 23.4095 13.6319 23.4079 14.0097C23.4064 14.3876 23.3216 14.7466 23.1535 15.0867C22.9854 15.4267 22.7295 15.7101 22.3857 15.9369L3.87215 27.6696C3.68285 27.783 3.48447 27.8684 3.27699 27.9258C3.06952 27.9833 2.87038 28.0112 2.67956 28.0097C2.0738 28.0097 1.54376 27.7921 1.08944 27.3568C0.63512 26.9215 0.407959 26.3834 0.407959 25.7425Z" fill="white"/>
</svg>
