<svg width="23" height="29" viewBox="0 0 23 29" fill="none" xmlns="http://www.w3.org/2000/svg">
<path d="M0 26.3416V2.8761C0 2.23372 0.227161 1.69488 0.681481 1.25958C1.1358 0.824279 1.66584 0.607383 2.2716 0.608895C2.4609 0.608895 2.66005 0.636857 2.86903 0.692781C3.07802 0.748706 3.27641 0.834103 3.46419 0.948975L21.9778 12.6817C22.3185 12.9085 22.5744 13.1919 22.7456 13.5319C22.9167 13.872 23.0015 14.231 23 14.6089C22.9985 14.9867 22.9137 15.3457 22.7456 15.6858C22.5775 16.0259 22.3215 16.3093 21.9778 16.536L3.46419 28.2687C3.27489 28.3821 3.07651 28.4675 2.86903 28.5249C2.66156 28.5824 2.46242 28.6103 2.2716 28.6088C1.66584 28.6088 1.1358 28.3912 0.681481 27.9559C0.227161 27.5206 0 26.9825 0 26.3416Z" fill="#01395E"/>
</svg>
