<svg width="262" height="262" viewBox="0 0 262 262" fill="none" xmlns="http://www.w3.org/2000/svg">
<circle cx="131" cy="131" r="127" stroke="#01395E" stroke-width="8"/>
<path d="M143.25 200.417V146.68C140.512 146.668 137.781 146.426 135.083 145.957V196.333H118.75V139.881C115.81 138.125 113.074 136.059 110.583 133.736V200.417C110.583 201.5 111.013 202.538 111.779 203.304C112.545 204.07 113.584 204.5 114.667 204.5H139.167C140.25 204.5 141.288 204.07 142.054 203.304C142.82 202.538 143.25 201.5 143.25 200.417ZM143.25 122.923C140.464 122.901 137.702 122.404 135.083 121.453V114.667H125.136C123.03 112.28 121.408 109.506 120.363 106.5H139.167C140.25 106.5 141.288 106.93 142.054 107.696C142.82 108.462 143.25 109.5 143.25 110.583V122.923Z" fill="#01395E"/>
<path fill-rule="evenodd" clip-rule="evenodd" d="M143.25 139.167C140.506 139.16 137.77 138.877 135.083 138.321V138.264C116.663 134.414 102.825 118.08 102.825 98.5171C102.825 76.0873 121.008 57.9083 143.434 57.9083C165.859 57.9083 184.042 76.0914 184.042 98.5171C184.056 106.908 181.459 115.095 176.611 121.943L176.407 122.225L199.841 145.655L193.724 151.768L170.629 128.677L170.343 128.93C162.927 135.514 153.35 139.143 143.434 139.126H143.25V139.167ZM175.394 98.5171C175.394 106.993 172.027 115.123 166.033 121.116C160.039 127.11 151.91 130.477 143.434 130.477C134.957 130.477 126.828 127.11 120.834 121.116C114.841 115.123 111.473 106.993 111.473 98.5171C111.473 90.0407 114.841 81.9115 120.834 75.9178C126.828 69.9241 134.957 66.5568 143.434 66.5568C151.91 66.5568 160.039 69.9241 166.033 75.9178C172.027 81.9115 175.394 90.0407 175.394 98.5171ZM65.6666 57.5C64.5836 57.5 63.545 57.9302 62.7792 58.696C62.0135 59.4618 61.5833 60.5004 61.5833 61.5833V200.417C61.5833 201.5 62.0135 202.538 62.7792 203.304C63.545 204.07 64.5836 204.5 65.6666 204.5H90.1666C91.2496 204.5 92.2882 204.07 93.0539 203.304C93.8197 202.538 94.2499 201.5 94.2499 200.417V61.5833C94.2499 60.5004 93.8197 59.4618 93.0539 58.696C92.2882 57.9302 91.2496 57.5 90.1666 57.5H65.6666ZM69.7499 196.333V65.6667H86.0833V196.333H69.7499ZM159.583 163.667C159.583 162.584 160.013 161.545 160.779 160.779C161.545 160.014 162.584 159.583 163.667 159.583H188.167C189.25 159.583 190.288 160.014 191.054 160.779C191.82 161.545 192.25 162.584 192.25 163.667V200.417C192.25 201.5 191.82 202.538 191.054 203.304C190.288 204.07 189.25 204.5 188.167 204.5H163.667C162.584 204.5 161.545 204.07 160.779 203.304C160.013 202.538 159.583 201.5 159.583 200.417V163.667ZM167.75 167.75V196.333H184.083V167.75H167.75Z" fill="#01395E"/>
</svg>
