<svg width="262" height="262" viewBox="0 0 262 262" fill="none" xmlns="http://www.w3.org/2000/svg">
<circle cx="131" cy="131" r="127" stroke="#01395E" stroke-width="8"/>
<path fill-rule="evenodd" clip-rule="evenodd" d="M116.914 64.2842C129.285 61.6133 142.156 62.4351 154.087 66.6578C163.217 69.8906 171.56 75.0194 178.566 81.7069H159.487C156.562 81.7115 153.731 82.7405 151.486 84.6152C149.235 86.4979 147.659 89.0629 146.997 91.9217L142.473 111.172C142.359 111.657 142.342 112.16 142.422 112.651C142.502 113.143 142.679 113.614 142.941 114.038C143.203 114.461 143.546 114.829 143.951 115.12C144.355 115.411 144.813 115.619 145.298 115.733C145.783 115.847 146.286 115.865 146.777 115.785C147.269 115.704 147.74 115.528 148.164 115.266C148.587 115.003 148.955 114.66 149.246 114.256C149.537 113.851 149.745 113.394 149.859 112.909L154.379 93.6583C154.664 92.4072 155.348 91.2826 156.328 90.4543C157.257 89.6808 158.368 89.2903 159.479 89.2903H184.083C184.484 89.2898 184.882 89.2258 185.262 89.1007C192.834 98.7989 197.675 110.345 199.284 122.543C199.334 123.049 199.485 123.539 199.728 123.985C199.971 124.432 200.302 124.824 200.7 125.14C201.098 125.456 201.555 125.689 202.045 125.824C202.535 125.96 203.046 125.996 203.55 125.93C204.054 125.864 204.539 125.697 204.978 125.44C205.416 125.182 205.798 124.839 206.101 124.432C206.404 124.024 206.622 123.559 206.742 123.065C206.862 122.572 206.881 122.059 206.799 121.557C204.958 107.583 199.296 94.3879 190.438 83.4246C181.588 72.4822 169.882 64.2038 156.616 59.5067C143.359 54.8158 129.059 53.9034 115.314 56.8715C101.562 59.8396 88.9021 66.5638 78.743 76.2962C68.5696 86.0449 61.2872 98.4146 57.6992 112.04C54.1006 125.676 54.3368 140.041 58.3817 153.551C62.4187 167.051 70.1082 179.171 80.6009 188.575C91.0771 197.965 103.954 204.264 117.797 206.771C118.291 206.868 118.798 206.866 119.291 206.765C119.783 206.664 120.251 206.465 120.666 206.182C121.081 205.898 121.436 205.535 121.71 205.113C121.983 204.691 122.17 204.219 122.259 203.724C122.348 203.229 122.338 202.721 122.23 202.23C122.121 201.739 121.915 201.275 121.625 200.864C121.335 200.453 120.967 200.104 120.54 199.837C120.114 199.57 119.639 199.391 119.143 199.309C109.597 197.585 100.528 193.845 92.5408 188.34L98.4255 158.727H102.308C104.367 158.729 106.398 158.26 108.247 157.354C110.095 156.448 111.711 155.13 112.97 153.502C114.234 151.876 115.112 149.985 115.539 147.971C115.966 145.957 115.93 143.872 115.435 141.873L110.57 122.297L110.566 122.285C109.831 119.358 108.14 116.759 105.762 114.899C103.387 113.041 100.456 112.034 97.4397 112.04H65.5707C68.9646 100.518 75.3135 90.0846 83.9868 81.7752C93.1334 73.0116 104.532 66.9569 116.914 64.2842ZM63.7924 119.624C61.931 130.208 62.5672 141.08 65.6503 151.375C69.2854 163.533 76.2098 174.451 85.659 182.922L85.8486 183.096L91.5929 154.196C91.7639 153.336 92.2276 152.562 92.9051 152.005C93.5826 151.449 94.432 151.144 95.3088 151.144H102.308C103.211 151.143 104.101 150.937 104.912 150.539C105.722 150.141 106.431 149.564 106.983 148.85C107.543 148.129 107.932 147.29 108.121 146.397C108.309 145.503 108.292 144.579 108.072 143.693L103.211 124.139V124.132C102.886 122.841 102.14 121.695 101.091 120.875C100.053 120.061 98.7704 119.62 97.4511 119.624H63.7924Z" fill="#01395E"/>
<path fill-rule="evenodd" clip-rule="evenodd" d="M133.571 165.125C134.17 168.911 135.658 172.501 137.912 175.602L133.654 179.86L132.922 179.128C132.207 178.437 131.249 178.055 130.255 178.064C129.261 178.072 128.31 178.471 127.607 179.174C126.904 179.877 126.505 180.828 126.497 181.822C126.488 182.816 126.87 183.774 127.561 184.489L134.386 191.314C135.101 192.005 136.059 192.387 137.053 192.379C138.047 192.37 138.998 191.971 139.701 191.268C140.404 190.565 140.803 189.614 140.812 188.62C140.82 187.626 140.438 186.668 139.747 185.953L139.016 185.221L143.274 180.963C146.371 183.222 149.962 184.711 153.75 185.305V191.686C152.782 191.783 151.888 192.249 151.254 192.986C150.62 193.724 150.293 194.677 150.342 195.648C150.39 196.62 150.811 197.536 151.516 198.206C152.221 198.877 153.156 199.25 154.129 199.25H160.954C161.927 199.25 162.863 198.877 163.568 198.206C164.273 197.536 164.693 196.62 164.742 195.648C164.79 194.677 164.464 193.724 163.829 192.986C163.195 192.249 162.301 191.783 161.333 191.686V185.305C165.932 184.576 170.225 182.54 173.698 179.439L179.48 185.221L178.748 185.953C178.058 186.668 177.676 187.626 177.684 188.62C177.693 189.614 178.092 190.565 178.795 191.268C179.498 191.971 180.449 192.37 181.443 192.379C182.437 192.387 183.395 192.005 184.11 191.314L190.935 184.489C191.626 183.774 192.008 182.816 191.999 181.822C191.99 180.828 191.592 179.877 190.889 179.174C190.186 178.471 189.235 178.072 188.241 178.064C187.246 178.055 186.289 178.437 185.573 179.128L184.842 179.86L178.521 173.539C180.004 170.991 181.039 168.155 181.516 165.125H187.894C187.991 166.093 188.457 166.987 189.194 167.621C189.932 168.256 190.885 168.582 191.856 168.534C192.828 168.485 193.744 168.065 194.414 167.36C195.085 166.655 195.458 165.719 195.458 164.746V157.921C195.458 156.948 195.085 156.013 194.414 155.308C193.744 154.603 192.828 154.182 191.856 154.134C190.885 154.085 189.932 154.412 189.194 155.046C188.457 155.68 187.991 156.574 187.894 157.542H181.513C180.913 153.756 179.425 150.166 177.171 147.066L181.429 142.808L182.161 143.539C182.876 144.23 183.834 144.612 184.828 144.604C185.822 144.595 186.773 144.196 187.476 143.493C188.179 142.79 188.578 141.839 188.587 140.845C188.595 139.851 188.213 138.893 187.522 138.178L180.697 131.353C179.982 130.662 179.024 130.28 178.03 130.289C177.036 130.297 176.085 130.696 175.382 131.399C174.679 132.102 174.28 133.053 174.272 134.047C174.263 135.041 174.645 135.999 175.336 136.714L176.068 137.446L171.81 141.704C168.709 139.45 165.119 137.962 161.333 137.363V130.981C162.301 130.884 163.195 130.419 163.829 129.681C164.464 128.944 164.79 127.99 164.742 127.019C164.693 126.047 164.273 125.132 163.568 124.461C162.863 123.791 161.927 123.417 160.954 123.417H154.129C153.156 123.417 152.221 123.791 151.516 124.461C150.811 125.132 150.39 126.047 150.342 127.019C150.293 127.99 150.62 128.944 151.254 129.681C151.888 130.419 152.782 130.884 153.75 130.981V137.363C149.964 137.962 146.374 139.45 143.274 141.704L139.016 137.446L139.747 136.714C140.438 135.999 140.82 135.041 140.812 134.047C140.803 133.053 140.404 132.102 139.701 131.399C138.998 130.696 138.047 130.297 137.053 130.289C136.059 130.28 135.101 130.662 134.386 131.353L127.561 138.178C126.87 138.893 126.488 139.851 126.497 140.845C126.505 141.839 126.904 142.79 127.607 143.493C128.31 144.196 129.261 144.595 130.255 144.604C131.249 144.612 132.207 144.23 132.922 143.539L133.654 142.808L137.912 147.066C135.658 150.166 134.17 153.756 133.571 157.542H127.189C127.092 156.574 126.627 155.68 125.889 155.046C125.152 154.412 124.198 154.085 123.227 154.134C122.255 154.182 121.34 154.603 120.669 155.308C119.999 156.013 119.625 156.948 119.625 157.921V164.746C119.625 165.719 119.999 166.655 120.669 167.36C121.34 168.065 122.255 168.485 123.227 168.534C124.198 168.582 125.152 168.256 125.889 167.621C126.627 166.987 127.092 166.093 127.189 165.125H133.571ZM140.858 161.334C140.858 156.909 142.616 152.665 145.745 149.537C148.874 146.408 153.117 144.65 157.542 144.65C161.966 144.65 166.21 146.408 169.339 149.537C172.467 152.665 174.225 156.909 174.225 161.334C174.225 165.758 172.467 170.002 169.339 173.131C166.21 176.259 161.966 178.017 157.542 178.017C153.117 178.017 148.874 176.259 145.745 173.131C142.616 170.002 140.858 165.758 140.858 161.334Z" fill="#01395E"/>
</svg>
