<svg width="262" height="262" viewBox="0 0 262 262" fill="none" xmlns="http://www.w3.org/2000/svg">
<circle cx="131" cy="131" r="127" stroke="#01395E" stroke-width="8"/>
<path d="M131 76.5C129.079 76.5 127.178 76.8783 125.403 77.6133C123.629 78.3482 122.017 79.4255 120.659 80.7836C119.301 82.1416 118.223 83.7539 117.488 85.5283C116.753 87.3026 116.375 89.2044 116.375 91.125C116.375 93.0456 116.753 94.9474 117.488 96.7217C118.223 98.4961 119.301 100.108 120.659 101.466C122.017 102.824 123.629 103.902 125.403 104.637C127.178 105.372 129.079 105.75 131 105.75C134.879 105.75 138.599 104.209 141.341 101.466C144.084 98.7237 145.625 95.0038 145.625 91.125C145.625 87.2462 144.084 83.5263 141.341 80.7836C138.599 78.0408 134.879 76.5 131 76.5ZM106.625 91.125C106.625 84.6603 109.193 78.4605 113.764 73.8893C118.335 69.3181 124.535 66.75 131 66.75C137.465 66.75 143.665 69.3181 148.236 73.8893C152.807 78.4605 155.375 84.6603 155.375 91.125C155.375 97.5897 152.807 103.79 148.236 108.361C143.665 112.932 137.465 115.5 131 115.5C124.535 115.5 118.335 112.932 113.764 108.361C109.193 103.79 106.625 97.5897 106.625 91.125ZM92 139.875C92.0065 138.094 92.1885 136.371 92.546 134.707L73.592 139.777C71.7365 140.275 69.9973 141.134 68.4736 142.304C66.9499 143.474 65.6717 144.933 64.712 146.597C63.7522 148.261 63.1297 150.098 62.8801 152.003C62.6304 153.907 62.7585 155.843 63.257 157.698L67.04 171.826C68.0571 175.617 69.8267 179.164 72.2434 182.256C74.6601 185.349 77.6745 187.924 81.1071 189.827C84.5396 191.73 88.3201 192.923 92.2233 193.335C96.1266 193.746 100.073 193.368 103.827 192.223C101.219 189.693 98.9777 186.812 97.1675 183.662C92.5745 184.106 87.973 182.906 84.1812 180.276C80.3894 177.647 77.653 173.758 76.4585 169.3L72.6657 155.163C72.3324 153.914 72.5087 152.584 73.1559 151.465C73.8032 150.346 74.8684 149.53 76.1173 149.196L92 144.945V139.875ZM159.138 192.505L158.164 192.232C160.767 189.697 163.019 186.821 164.833 183.662C169.426 184.106 174.027 182.906 177.819 180.276C181.611 177.647 184.347 173.758 185.541 169.3L189.325 155.163C189.658 153.915 189.483 152.586 188.838 151.468C188.193 150.349 187.13 149.532 185.883 149.196L170 144.945V139.875C169.994 138.094 169.812 136.371 169.454 134.707L188.398 139.777C190.255 140.274 191.995 141.132 193.52 142.301C195.044 143.471 196.324 144.93 197.284 146.594C198.245 148.258 198.868 150.096 199.119 152.001C199.369 153.906 199.241 155.842 198.743 157.698L194.96 171.826C192.949 179.316 188.046 185.701 181.329 189.577C174.611 193.454 166.63 194.513 159.138 192.505ZM72.5 105.75C72.5 103.164 73.5272 100.684 75.3557 98.8557C77.1842 97.0272 79.6641 96 82.25 96C84.8359 96 87.3158 97.0272 89.1443 98.8557C90.9728 100.684 92 103.164 92 105.75C92 108.336 90.9728 110.816 89.1443 112.644C87.3158 114.473 84.8359 115.5 82.25 115.5C79.6641 115.5 77.1842 114.473 75.3557 112.644C73.5272 110.816 72.5 108.336 72.5 105.75ZM82.25 86.25C77.0783 86.25 72.1184 88.3045 68.4614 91.9614C64.8045 95.6184 62.75 100.578 62.75 105.75C62.75 110.922 64.8045 115.882 68.4614 119.539C72.1184 123.196 77.0783 125.25 82.25 125.25C87.4217 125.25 92.3816 123.196 96.0386 119.539C99.6955 115.882 101.75 110.922 101.75 105.75C101.75 100.578 99.6955 95.6184 96.0386 91.9614C92.3816 88.3045 87.4217 86.25 82.25 86.25ZM179.75 96C177.164 96 174.684 97.0272 172.856 98.8557C171.027 100.684 170 103.164 170 105.75C170 108.336 171.027 110.816 172.856 112.644C174.684 114.473 177.164 115.5 179.75 115.5C182.336 115.5 184.816 114.473 186.644 112.644C188.473 110.816 189.5 108.336 189.5 105.75C189.5 103.164 188.473 100.684 186.644 98.8557C184.816 97.0272 182.336 96 179.75 96ZM160.25 105.75C160.25 100.578 162.304 95.6184 165.961 91.9614C169.618 88.3045 174.578 86.25 179.75 86.25C184.922 86.25 189.882 88.3045 193.539 91.9614C197.196 95.6184 199.25 100.578 199.25 105.75C199.25 110.922 197.196 115.882 193.539 119.539C189.882 123.196 184.922 125.25 179.75 125.25C174.578 125.25 169.618 123.196 165.961 119.539C162.304 115.882 160.25 110.922 160.25 105.75ZM116.375 125.25C112.496 125.25 108.776 126.791 106.034 129.534C103.291 132.276 101.75 135.996 101.75 139.875V164.25C101.75 172.008 104.832 179.447 110.317 184.933C115.803 190.418 123.242 193.5 131 193.5C138.758 193.5 146.197 190.418 151.683 184.933C157.168 179.447 160.25 172.008 160.25 164.25V139.875C160.25 135.996 158.709 132.276 155.966 129.534C153.224 126.791 149.504 125.25 145.625 125.25H116.375ZM111.5 139.875C111.5 138.582 112.014 137.342 112.928 136.428C113.842 135.514 115.082 135 116.375 135H145.625C146.918 135 148.158 135.514 149.072 136.428C149.986 137.342 150.5 138.582 150.5 139.875V164.25C150.5 169.422 148.446 174.382 144.789 178.039C141.132 181.696 136.172 183.75 131 183.75C125.828 183.75 120.868 181.696 117.211 178.039C113.554 174.382 111.5 169.422 111.5 164.25V139.875Z" fill="#01395E"/>
</svg>
