<svg width="262" height="262" viewBox="0 0 262 262" fill="none" xmlns="http://www.w3.org/2000/svg">
<circle cx="131" cy="131" r="127" stroke="#01395E" stroke-width="8"/>
<path d="M150.5 174.875H184.625V184.625H150.5V174.875ZM160.25 194.375H174.875V204.125H160.25V194.375ZM184.625 165.125H174.875C174.875 159.762 176.825 155.375 180.725 151.475L183.163 149.038C187.063 145.138 189.5 139.288 189.5 133.438C189.5 121.25 179.75 111.5 167.562 111.5C155.375 111.5 145.625 121.25 145.625 133.438C145.625 139.288 148.062 144.65 151.962 149.038L154.4 151.475C158.3 155.375 160.25 159.762 160.25 165.125H150.5C150.5 162.688 149.525 160.25 147.575 158.3L145.137 155.863C139.287 150.013 135.875 141.725 135.875 133.438C135.875 115.888 150.013 101.75 167.562 101.75C185.112 101.75 199.25 115.888 199.25 133.438C199.25 141.725 195.838 150.013 189.988 155.863L187.55 158.3C185.6 160.25 184.625 162.688 184.625 165.125ZM82.25 160.25H121.25V170H82.25V160.25Z" fill="#01395E"/>
<path d="M111.5 150.5C114.192 150.5 116.375 148.317 116.375 145.625C116.375 142.933 114.192 140.75 111.5 140.75C108.808 140.75 106.625 142.933 106.625 145.625C106.625 148.317 108.808 150.5 111.5 150.5Z" fill="#01395E"/>
<path d="M82.25 140.75H96.875V150.5H82.25V140.75ZM82.25 121.25H116.375V131H82.25V121.25ZM101.75 101.75H135.875V111.5H101.75V101.75Z" fill="#01395E"/>
<path d="M87.125 111.5C89.8174 111.5 92 109.317 92 106.625C92 103.933 89.8174 101.75 87.125 101.75C84.4326 101.75 82.25 103.933 82.25 106.625C82.25 109.317 84.4326 111.5 87.125 111.5Z" fill="#01395E"/>
<path d="M131 82.25H150.5V92H131V82.25Z" fill="#01395E"/>
<path d="M116.375 92C119.067 92 121.25 89.8174 121.25 87.125C121.25 84.4326 119.067 82.25 116.375 82.25C113.683 82.25 111.5 84.4326 111.5 87.125C111.5 89.8174 113.683 92 116.375 92Z" fill="#01395E"/>
<path d="M82.25 82.25H101.75V92H82.25V82.25Z" fill="#01395E"/>
<path d="M140.75 189.5H72.5V72.5H160.25V92H170V72.5C170 67.1375 165.613 62.75 160.25 62.75H72.5C67.1375 62.75 62.75 67.1375 62.75 72.5V189.5C62.75 194.863 67.1375 199.25 72.5 199.25H140.75V189.5Z" fill="#01395E"/>
</svg>
