<svg width="262" height="262" viewBox="0 0 262 262" fill="none" xmlns="http://www.w3.org/2000/svg">
<circle cx="131" cy="131" r="127" stroke="#01395E" stroke-width="8"/>
<path d="M138.667 154C121.095 200 71.9053 154 54.3333 200M157.833 154H169.341C187.411 154 196.45 154 202.062 148.388C207.674 142.776 207.674 133.737 207.674 115.667V100.333C207.674 82.263 207.674 73.224 202.062 67.612C196.45 62 187.427 62 169.341 62H138.674C120.604 62 111.573 62 105.961 67.612C101.207 72.3653 100.471 79.5797 100.364 92.6667" stroke="#01395E" stroke-width="11.5" stroke-linecap="round" stroke-linejoin="round"/>
<path d="M96.4999 154C107.085 154 115.667 145.419 115.667 134.834C115.667 124.248 107.085 115.667 96.4999 115.667C85.9145 115.667 77.3333 124.248 77.3333 134.834C77.3333 145.419 85.9145 154 96.4999 154Z" stroke="#01395E" stroke-width="11.5" stroke-linecap="round" stroke-linejoin="round"/>
<path d="M131 92.667H177M177 123.334H154" stroke="#01395E" stroke-width="11.5" stroke-linecap="round" stroke-linejoin="round"/>
</svg>
