<svg width="189" height="189" viewBox="0 0 189 189" fill="none" xmlns="http://www.w3.org/2000/svg">
<path d="M53.7053 56.4046C46.7041 56.2864 43.3459 57.6619 41.4814 62.5408C40.3531 65.5014 40.2832 68.7414 40.2832 71.9115V126.256C40.8635 129.662 41.8307 131.924 44.2701 133.778C48.2516 136.787 53.5388 137.201 58.4552 138.093C69.223 140.043 78.5884 143.348 93.9825 147.748M93.9825 147.748C108.238 143.337 118.43 140.28 127.984 138.517C135.619 137.104 145.339 136.153 147.059 128.577C147.51 126.583 147.714 124.09 147.676 120.882V79.3265C147.676 71.2453 148.902 60.4076 141.53 57.1031C139.681 56.281 137.355 56.136 134.254 56.4046M93.9825 147.748V110.136M93.9771 94.0167C101.1 94.0124 107.929 91.1801 112.964 86.1422C117.999 81.1044 120.827 74.2734 120.827 67.1509C120.827 52.3103 108.807 40.2852 93.9771 40.2852M93.9771 94.0167C86.8547 94.0124 80.0254 91.1801 74.9906 86.1422C69.9558 81.1044 67.1275 74.2734 67.1275 67.1509C67.1275 52.3103 79.1472 40.2852 93.9771 40.2852M93.9771 94.0167C99.9091 94.0167 104.718 81.9808 104.718 67.1509C104.718 52.3103 99.9091 40.2852 93.9718 40.2852M93.9771 40.2852C88.0452 40.2852 83.2362 52.3103 83.2362 67.1509C83.2362 81.9808 88.0452 94.0167 93.9718 94.0167" stroke="white" stroke-width="8.05973" stroke-linecap="round" stroke-linejoin="round"/>
<circle cx="94.3754" cy="94.3754" r="91.4937" stroke="white" stroke-width="5.76338"/>
</svg>
