<svg width="78" height="64" viewBox="0 0 78 64" fill="none" xmlns="http://www.w3.org/2000/svg">
<path d="M7.00899 44.0847C3.89232 40.0367 2.33398 38.009 2.33398 31.9993C2.33398 25.986 3.89232 23.9657 7.00899 19.914C13.2313 11.8327 23.6667 2.66602 39.0007 2.66602C54.3347 2.66602 64.77 11.8327 70.9923 19.914C74.109 23.9693 75.6673 25.9897 75.6673 31.9993C75.6673 38.0127 74.109 40.033 70.9923 44.0847C64.77 52.166 54.3347 61.3327 39.0007 61.3327C23.6667 61.3327 13.2313 52.166 7.00899 44.0847Z" stroke="#01395E" stroke-width="4.5"/>
<path d="M50.0007 31.9993C50.0007 34.9167 48.8417 37.7146 46.7788 39.7775C44.7159 41.8404 41.918 42.9994 39.0007 42.9994C36.0833 42.9994 33.2854 41.8404 31.2225 39.7775C29.1596 37.7146 28.0007 34.9167 28.0007 31.9993C28.0007 29.082 29.1596 26.2841 31.2225 24.2212C33.2854 22.1583 36.0833 20.9993 39.0007 20.9993C41.918 20.9993 44.7159 22.1583 46.7788 24.2212C48.8417 26.2841 50.0007 29.082 50.0007 31.9993Z" stroke="#01395E" stroke-width="4.5"/>
</svg>
