<svg width="189" height="189" viewBox="0 0 189 189" fill="none" xmlns="http://www.w3.org/2000/svg">
<circle cx="94.3754" cy="94.3754" r="91.4937" stroke="white" stroke-width="5.76338"/>
<path d="M94.0013 50.25C91.2939 50.25 88.6974 51.3255 86.7829 53.24C84.8685 55.1544 83.793 57.7509 83.793 60.4583C83.793 63.1658 84.8685 65.7623 86.7829 67.6767C88.6974 69.5911 91.2939 70.6667 94.0013 70.6667C96.7087 70.6667 99.3053 69.5911 101.22 67.6767C103.134 65.7623 104.21 63.1658 104.21 60.4583C104.21 57.7509 103.134 55.1544 101.22 53.24C99.3053 51.3255 96.7087 50.25 94.0013 50.25ZM75.043 60.4583C75.043 55.4303 77.0404 50.6081 80.5957 47.0528C84.1511 43.4974 88.9732 41.5 94.0013 41.5C99.0294 41.5 103.851 43.4974 107.407 47.0528C110.962 50.6081 112.96 55.4303 112.96 60.4583C112.96 65.4864 110.962 70.3085 107.407 73.8639C103.851 77.4193 99.0294 79.4167 94.0013 79.4167C88.9732 79.4167 84.1511 77.4193 80.5957 73.8639C77.0404 70.3085 75.043 65.4864 75.043 60.4583ZM53.168 61.9167C50.8473 61.9167 48.6217 62.8385 46.9808 64.4795C45.3398 66.1204 44.418 68.346 44.418 70.6667C44.418 72.9873 45.3398 75.2129 46.9808 76.8539C48.6217 78.4948 50.8473 79.4167 53.168 79.4167C55.4886 79.4167 57.7142 78.4948 59.3552 76.8539C60.9961 75.2129 61.918 72.9873 61.918 70.6667C61.918 68.346 60.9961 66.1204 59.3552 64.4795C57.7142 62.8385 55.4886 61.9167 53.168 61.9167ZM35.668 70.6667C35.668 66.0254 37.5117 61.5742 40.7936 58.2923C44.0755 55.0104 48.5267 53.1667 53.168 53.1667C57.8093 53.1667 62.2605 55.0104 65.5423 58.2923C68.8242 61.5742 70.668 66.0254 70.668 70.6667C70.668 75.308 68.8242 79.7591 65.5423 83.041C62.2605 86.3229 57.8093 88.1667 53.168 88.1667C48.5267 88.1667 44.0755 86.3229 40.7936 83.041C37.5117 79.7591 35.668 75.308 35.668 70.6667ZM126.085 70.6667C126.085 68.346 127.007 66.1204 128.647 64.4795C130.288 62.8385 132.514 61.9167 134.835 61.9167C137.155 61.9167 139.381 62.8385 141.022 64.4795C142.663 66.1204 143.585 68.346 143.585 70.6667C143.585 72.9873 142.663 75.2129 141.022 76.8539C139.381 78.4948 137.155 79.4167 134.835 79.4167C132.514 79.4167 130.288 78.4948 128.647 76.8539C127.007 75.2129 126.085 72.9873 126.085 70.6667ZM134.835 53.1667C130.193 53.1667 125.742 55.0104 122.46 58.2923C119.178 61.5742 117.335 66.0254 117.335 70.6667C117.335 75.308 119.178 79.7591 122.46 83.041C125.742 86.3229 130.193 88.1667 134.835 88.1667C139.476 88.1667 143.927 86.3229 147.209 83.041C150.491 79.7591 152.335 75.308 152.335 70.6667C152.335 66.0254 150.491 61.5742 147.209 58.2923C143.927 55.0104 139.476 53.1667 134.835 53.1667ZM67.7513 98.375C67.7513 92.74 72.3246 88.1667 77.9596 88.1667H110.043C115.678 88.1667 120.251 92.74 120.251 98.375V120.25C120.251 127.212 117.486 133.889 112.563 138.812C107.64 143.734 100.963 146.5 94.0013 146.5C87.0394 146.5 80.3626 143.734 75.4398 138.812C70.5169 133.889 67.7513 127.212 67.7513 120.25V98.375ZM77.9596 96.9167C77.5729 96.9167 77.2019 97.0703 76.9284 97.3438C76.6549 97.6173 76.5013 97.9882 76.5013 98.375V120.25C76.5013 124.891 78.345 129.342 81.6269 132.624C84.9088 135.906 89.36 137.75 94.0013 137.75C98.6426 137.75 103.094 135.906 106.376 132.624C109.658 129.342 111.501 124.891 111.501 120.25V98.375C111.501 97.9882 111.348 97.6173 111.074 97.3438C110.801 97.0703 110.43 96.9167 110.043 96.9167H77.9596ZM62.5596 93.8717C62.1357 95.3067 61.9219 96.8078 61.918 98.375V103.1L45.503 107.498C45.1294 107.598 44.8107 107.842 44.6171 108.177C44.4235 108.512 44.3707 108.91 44.4705 109.283L48.6238 124.783C49.6891 128.758 52.1217 132.231 55.4941 134.591C58.8665 136.951 62.9628 138.047 67.063 137.686C68.9005 140.521 71.1755 143.047 73.7888 145.164C70.3942 146.29 66.8054 146.71 63.2427 146.398C59.6799 146.087 56.2183 145.051 53.0703 143.354C49.9224 141.657 47.1544 139.334 44.9363 136.529C42.7181 133.724 41.0966 130.495 40.1713 127.04L36.018 111.547C35.3177 108.932 35.6844 106.146 37.0376 103.802C38.3907 101.458 40.6195 99.7471 43.2338 99.0458L62.5596 93.8717ZM114.214 145.164C114.7 145.327 115.192 145.475 115.69 145.607C122.414 147.409 129.579 146.465 135.607 142.984C141.636 139.503 146.035 133.77 147.837 127.046L151.99 111.552C152.338 110.257 152.427 108.907 152.253 107.577C152.078 106.248 151.643 104.966 150.973 103.804C150.303 102.643 149.411 101.625 148.347 100.808C147.284 99.992 146.07 99.393 144.775 99.0458L125.443 93.8658C125.867 95.3047 126.081 96.8078 126.085 98.375V103.1L142.511 107.498C142.884 107.599 143.201 107.844 143.394 108.179C143.586 108.513 143.638 108.91 143.538 109.283L139.385 124.783C138.319 128.759 135.886 132.233 132.512 134.593C129.138 136.953 125.041 138.048 120.94 137.686C119.105 140.517 116.835 143.04 114.214 145.164Z" fill="white"/>
</svg>
