<svg width="189" height="189" viewBox="0 0 189 189" fill="none" xmlns="http://www.w3.org/2000/svg">
<circle cx="94.3754" cy="94.3754" r="91.4937" stroke="white" stroke-width="5.76338"/>
<path d="M94.3768 59.0089C94.3828 57.0067 93.9853 55.0236 93.2079 53.1761C92.4305 51.3287 91.2888 49.6542 89.85 48.2512C88.4111 46.8481 86.7042 45.7449 84.8295 45.0063C82.9549 44.2678 80.9504 43.9088 78.934 43.9505C76.9175 43.9923 74.9299 44.4338 73.0879 45.2493C71.2459 46.0648 69.5867 47.2377 68.208 48.699C66.8293 50.1603 65.7589 51.8806 65.0597 53.7586C64.3605 55.6366 64.0467 57.6344 64.1367 59.6346C61.1726 60.3912 58.4209 61.8074 56.0899 63.776C53.7589 65.7446 51.9097 68.2139 50.6823 70.997C49.455 73.7801 48.8817 76.804 49.0059 79.8396C49.1301 82.8752 49.9485 85.843 51.3992 88.5181C48.8486 90.5751 46.8429 93.2197 45.5566 96.2217C44.2703 99.2237 43.7424 102.492 44.0187 105.743C44.2951 108.994 45.3674 112.128 47.1423 114.874C48.9172 117.619 51.341 119.893 54.2028 121.496C53.8494 124.211 54.0603 126.968 54.8225 129.598C55.5847 132.229 56.8819 134.676 58.6341 136.789C60.3864 138.902 62.5564 140.636 65.0101 141.884C67.4639 143.132 70.1493 143.867 72.9005 144.044C75.6517 144.221 78.4103 143.837 81.0059 142.914C83.6016 141.992 85.9791 140.55 87.9917 138.68C90.0044 136.809 91.6093 134.549 92.7075 132.039C93.8057 129.528 94.3739 126.821 94.3768 124.084V59.0089Z" stroke="white" stroke-width="12.0671" stroke-linecap="round" stroke-linejoin="round"/>
<path d="M93.6544 59.0089C93.6484 57.0067 94.0458 55.0236 94.8233 53.1761C95.6007 51.3287 96.7424 49.6542 98.1812 48.2512C99.6201 46.8481 101.327 45.7449 103.202 45.0063C105.076 44.2678 107.081 43.9088 109.097 43.9505C111.114 43.9923 113.101 44.4338 114.943 45.2493C116.785 46.0648 118.444 47.2377 119.823 48.699C121.202 50.1603 122.272 51.8806 122.971 53.7586C123.671 55.6366 123.984 57.6344 123.895 59.6346C126.859 60.3912 129.61 61.8074 131.941 63.776C134.272 65.7446 136.121 68.2139 137.349 70.997C138.576 73.7801 139.149 76.804 139.025 79.8396C138.901 82.8752 138.083 85.843 136.632 88.5181C139.183 90.5751 141.188 93.2197 142.475 96.2217C143.761 99.2237 144.289 102.492 144.012 105.743C143.736 108.994 142.664 112.128 140.889 114.874C139.114 117.619 136.69 119.893 133.828 121.496C134.182 124.211 133.971 126.968 133.209 129.598C132.447 132.228 131.149 134.676 129.397 136.789C127.645 138.902 125.475 140.636 123.021 141.884C120.567 143.132 117.882 143.867 115.131 144.044C112.379 144.221 109.621 143.837 107.025 142.914C104.43 141.992 102.052 140.55 100.039 138.68C98.0268 136.809 96.4218 134.549 95.3236 132.039C94.2254 129.528 93.6573 126.821 93.6544 124.084V59.0089Z" stroke="white" stroke-width="12.0671" stroke-linecap="round" stroke-linejoin="round"/>
<path d="M109.104 99.0145C104.881 97.5437 101.194 94.8661 98.5084 91.3204C95.8228 87.7747 94.2592 83.52 94.0156 79.0944C93.7719 83.52 92.2083 87.7747 89.5227 91.3204C86.8371 94.8661 83.1499 97.5437 78.9275 99.0145M122.175 66.6444C123.392 64.5557 124.081 62.2063 124.182 59.7969M63.8545 59.7969C63.954 62.2059 64.6408 64.5553 65.8562 66.6444M51.1504 88.5365C52.0705 87.7945 53.055 87.1346 54.0926 86.5644M133.939 86.5644C134.976 87.1346 135.961 87.7945 136.881 88.5365M63.8394 123.915C60.3734 123.916 56.9657 123.031 53.9467 121.345M134.084 121.345C131.065 123.031 127.658 123.916 124.192 123.915" stroke="white" stroke-width="12.0671" stroke-linecap="round" stroke-linejoin="round"/>
</svg>
