<svg width="78" height="78" viewBox="0 0 78 78" fill="none" xmlns="http://www.w3.org/2000/svg">
<path d="M39.0128 77.25C33.7258 77.25 28.7533 76.247 24.0953 74.241C19.4401 72.2322 15.3898 69.5065 11.9445 66.064C8.49917 62.6215 5.77208 58.5755 3.76325 53.926C1.75442 49.2765 0.75 44.3054 0.75 39.0128C0.75 33.7201 1.75442 28.7476 3.76325 24.0953C5.76925 19.4401 8.49067 15.3898 11.9275 11.9445C15.3643 8.49917 19.4118 5.77208 24.0698 3.76325C28.7278 1.75442 33.7003 0.75 38.9873 0.75C44.2743 0.75 49.2468 1.75442 53.9048 3.76325C58.5599 5.76925 62.6102 8.49208 66.0555 11.9318C69.5008 15.3714 72.2279 19.4188 74.2368 24.074C76.2456 28.7292 77.25 33.7003 77.25 38.9873C77.25 44.2743 76.247 49.2468 74.241 53.9048C72.235 58.5628 69.5093 62.613 66.064 66.0555C62.6187 69.498 58.5727 72.2251 53.926 74.2368C49.2793 76.2484 44.3083 77.2528 39.0128 77.25ZM39 73C48.4917 73 56.5312 69.7062 63.1187 63.1187C69.7062 56.5312 73 48.4917 73 39C73 29.5083 69.7062 21.4687 63.1187 14.8812C56.5312 8.29375 48.4917 5 39 5C29.5083 5 21.4687 8.29375 14.8812 14.8812C8.29375 21.4687 5 29.5083 5 39C5 48.4917 8.29375 56.5312 14.8812 63.1187C21.4687 69.7062 29.5083 73 39 73ZM39.0212 60.25C33.1222 60.25 28.103 58.1859 23.9635 54.0578C19.824 49.9296 17.7528 44.9174 17.75 39.0212C17.7472 33.1251 19.8112 28.103 23.9422 23.955C28.0732 19.807 33.0854 17.7387 38.9788 17.75C44.8721 17.7613 49.8927 19.8254 54.0407 23.9422C58.1887 28.0591 60.2585 33.0713 60.25 38.9788C60.2415 44.8863 58.1774 49.9069 54.0578 54.0407C49.9381 58.1746 44.9259 60.2443 39.0212 60.25ZM39 56C43.675 56 47.6771 54.3354 51.0062 51.0062C54.3354 47.6771 56 43.675 56 39C56 34.325 54.3354 30.3229 51.0062 26.9938C47.6771 23.6646 43.675 22 39 22C34.325 22 30.3229 23.6646 26.9938 26.9938C23.6646 30.3229 22 34.325 22 39C22 43.675 23.6646 47.6771 26.9938 51.0062C30.3229 54.3354 34.325 56 39 56ZM39 43.25C37.861 43.25 36.8679 42.8264 36.0207 41.9793C35.1736 41.1321 34.75 40.139 34.75 39C34.75 37.861 35.1736 36.8679 36.0207 36.0207C36.8679 35.1736 37.861 34.75 39 34.75C40.139 34.75 41.1321 35.1736 41.9793 36.0207C42.8264 36.8679 43.25 37.861 43.25 39C43.25 40.139 42.8264 41.1321 41.9793 41.9793C41.1321 42.8264 40.139 43.25 39 43.25Z" fill="#01395E"/>
</svg>
