<svg width="189" height="189" viewBox="0 0 189 189" fill="none" xmlns="http://www.w3.org/2000/svg">
<circle cx="94.3754" cy="94.3754" r="91.4937" stroke="white" stroke-width="5.76338"/>
<path d="M93.6667 32C59.6637 32 32 59.6637 32 93.6667C32 127.67 59.6637 155.333 93.6667 155.333C127.67 155.333 155.333 127.67 155.333 93.6667C155.333 59.6637 127.67 32 93.6667 32ZM44.3333 93.6667C44.3333 88.1228 45.2953 82.801 46.9912 77.8245L56.6667 87.5L69 99.8333V112.167L81.3333 124.5L87.5 130.667V142.574C63.2095 139.522 44.3333 118.777 44.3333 93.6667ZM132.702 123.717C128.675 120.473 122.57 118.333 118.333 118.333V112.167C118.333 108.896 117.034 105.759 114.721 103.446C112.408 101.133 109.271 99.8333 106 99.8333H81.3333V81.3333C84.6043 81.3333 87.7414 80.0339 90.0543 77.721C92.3673 75.408 93.6667 72.271 93.6667 69V62.8333H99.8333C103.104 62.8333 106.241 61.5339 108.554 59.221C110.867 56.908 112.167 53.771 112.167 50.5V47.9655C130.223 55.2977 143 73.0083 143 93.6667C142.997 104.549 139.374 115.121 132.702 123.717Z" fill="white"/>
</svg>
